<svg width="77" height="89" viewBox="0 0 77 89" fill="none" xmlns="http://www.w3.org/2000/svg">
<rect opacity="0.1" y="12" width="76.6355" height="76.6355" rx="12" fill="#43B0FF"/>
<circle cx="40" cy="13" r="13" fill="#43B0FF"/>
<path d="M35.6211 18.156C34.8584 18.156 34.1824 17.948 33.5931 17.532C33.0124 17.116 32.5574 16.531 32.2281 15.777C31.9074 15.0143 31.7471 14.139 31.7471 13.151C31.7471 12.163 31.9074 11.292 32.2281 10.538C32.5574 9.784 33.0124 9.199 33.5931 8.783C34.1737 8.367 34.8454 8.159 35.6081 8.159C36.3794 8.159 37.0597 8.367 37.6491 8.783C38.2384 9.199 38.6934 9.784 39.0141 10.538C39.3434 11.292 39.5081 12.163 39.5081 13.151C39.5081 14.139 39.3434 15.0143 39.0141 15.777C38.6934 16.531 38.2384 17.116 37.6491 17.532C37.0684 17.948 36.3924 18.156 35.6211 18.156ZM33.5151 13.151C33.5151 14.1997 33.7014 15.0273 34.0741 15.634C34.4467 16.2407 34.9624 16.544 35.6211 16.544C36.2797 16.544 36.7954 16.245 37.1681 15.647C37.5494 15.0403 37.7401 14.2083 37.7401 13.151C37.7401 12.1023 37.5494 11.279 37.1681 10.681C36.7954 10.0743 36.2754 9.771 35.6081 9.771C34.9494 9.771 34.4337 10.07 34.0611 10.668C33.6971 11.266 33.5151 12.0937 33.5151 13.151Z" fill="white"/>
<path d="M40.8212 16.661L43.4472 13.918C44.0105 13.3287 44.4222 12.8823 44.6822 12.579C44.9422 12.267 45.1285 11.9983 45.2412 11.773C45.3538 11.539 45.4102 11.3007 45.4102 11.058C45.4102 10.6593 45.2845 10.343 45.0332 10.109C44.7818 9.86633 44.4525 9.745 44.0452 9.745C43.6205 9.745 43.2565 9.86633 42.9532 10.109C42.6585 10.343 42.4418 10.6897 42.3032 11.149L40.7562 10.668C40.8602 10.1653 41.0682 9.72766 41.3802 9.355C41.7008 8.97366 42.0952 8.679 42.5632 8.471C43.0312 8.263 43.5252 8.159 44.0452 8.159C44.6605 8.159 45.2065 8.276 45.6832 8.51C46.1598 8.73533 46.5282 9.056 46.7882 9.472C47.0568 9.87933 47.1912 10.3473 47.1912 10.876C47.1912 11.396 47.0482 11.903 46.7622 12.397C46.4848 12.8823 46.0298 13.4543 45.3972 14.113L43.1222 16.505H47.3212V18H40.8212V16.661Z" fill="white"/>
<g clip-path="url(#clip0_958_2339)">
<path d="M46.0577 45.9422C45.5981 45.4826 44.8517 45.4787 44.3921 45.9422L30.8753 59.4629C30.4511 59.9579 30.51 60.7003 31.0049 61.1246C31.4449 61.5017 32.097 61.5017 32.5369 61.1246L46.0577 47.6117C46.5173 47.1521 46.5212 46.4057 46.0577 45.9461V45.9422Z" fill="#43B0FF"/>
<path d="M53.5527 38.4474C50.5123 35.407 45.8024 35.1673 43.0606 37.9131L37.1408 43.8329C36.6655 44.2768 36.638 45.0231 37.0819 45.4984C37.5258 45.9737 38.2721 46.0012 38.7474 45.5574C38.7671 45.5377 38.7867 45.5181 38.8064 45.4984L44.7261 39.5787C46.5527 37.7521 49.762 38.0074 51.8872 40.1129C54.0123 42.2184 54.2441 45.4474 52.4214 47.274L46.5017 53.1937C46.0421 53.6533 46.0421 54.3997 46.5017 54.8593C46.9613 55.3189 47.7076 55.3189 48.1672 54.8593L54.087 48.9395C56.8327 46.1976 56.5931 41.4878 53.5527 38.4474ZM38.1936 61.5018L32.2738 67.4216C30.4472 69.2482 27.234 68.9928 25.1128 66.8873C22.9916 64.7818 22.7559 61.5529 24.5785 59.7263L30.4983 53.8065C30.9736 53.3626 31.0011 52.6163 30.5572 52.141C30.1133 51.6657 29.367 51.6382 28.8917 52.082C28.872 52.1017 28.8524 52.1213 28.8327 52.141L22.913 58.0607C20.1633 60.8104 20.4068 65.5242 23.4472 68.5529C24.9596 70.0966 27.0258 70.9765 29.1863 71.0001C30.9618 71.0237 32.6745 70.3363 33.9394 69.0871L39.8591 63.1673C40.303 62.692 40.2755 61.9457 39.8002 61.5018C39.3485 61.0815 38.6453 61.0815 38.1936 61.5018Z" fill="#43B0FF"/>
</g>
<defs>
<clipPath id="clip0_958_2339">
<rect width="35" height="35" fill="white" transform="translate(21 36)"/>
</clipPath>
</defs>
</svg>
