<svg width="77" height="89" viewBox="0 0 77 89" fill="none" xmlns="http://www.w3.org/2000/svg">
<rect opacity="0.1" y="12" width="76.6355" height="76.6355" rx="12" fill="#7558EA"/>
<g clip-path="url(#clip0_958_2367)">
<path d="M43.5707 50.0446C47.4904 47.2046 48.393 41.6794 45.5938 37.7026C42.7947 33.7301 37.3489 32.81 33.4293 35.65C29.5096 38.49 28.607 44.0151 31.4062 47.992C31.9643 48.7838 32.6488 49.4784 33.4293 50.0446C27.4734 50.832 23.0131 55.9723 23 62.0681V68.1152C23 68.6018 23.3924 69 23.872 69H53.128C53.6076 69 54 68.6018 54 68.1152V62.0681C53.9869 55.9723 49.5266 50.832 43.5707 50.0446ZM31.5239 42.8783C31.5239 38.9677 34.6457 35.8004 38.5 35.8004C42.3543 35.8004 45.4761 38.9677 45.4761 42.8783C45.4761 46.7888 42.3543 49.9561 38.5 49.9561C34.6457 49.9561 31.5239 46.7888 31.5239 42.8783ZM52.256 67.2305H24.744V62.0681C24.7527 56.3527 29.3221 51.7212 34.9553 51.7123H42.0447C47.6779 51.7212 52.2473 56.3527 52.256 62.0681V67.2305Z" fill="#7558EA"/>
<path d="M42.5857 58.8654H39.3724V55.6051C39.3724 55.1185 38.98 54.7204 38.5004 54.7204C38.0207 54.7204 37.6283 55.1185 37.6283 55.6051V58.8654H34.415C33.9354 58.8654 33.543 59.2635 33.543 59.7501C33.543 60.2367 33.9354 60.6348 34.415 60.6348H37.6283V63.9083C37.6283 64.3949 38.0207 64.7931 38.5004 64.7931C38.98 64.7931 39.3724 64.3949 39.3724 63.9083V60.6348H42.5857C43.0653 60.6348 43.4577 60.2367 43.4577 59.7501C43.4577 59.2635 43.0653 58.8654 42.5857 58.8654Z" fill="#7558EA"/>
</g>
<circle cx="40" cy="13" r="13" fill="#7558EA"/>
<path d="M36.8779 18.156C36.1152 18.156 35.4392 17.948 34.8499 17.532C34.2692 17.116 33.8142 16.531 33.4849 15.777C33.1642 15.0143 33.0039 14.139 33.0039 13.151C33.0039 12.163 33.1642 11.292 33.4849 10.538C33.8142 9.784 34.2692 9.199 34.8499 8.783C35.4306 8.367 36.1022 8.159 36.8649 8.159C37.6362 8.159 38.3166 8.367 38.9059 8.783C39.4952 9.199 39.9502 9.784 40.2709 10.538C40.6002 11.292 40.7649 12.163 40.7649 13.151C40.7649 14.139 40.6002 15.0143 40.2709 15.777C39.9502 16.531 39.4952 17.116 38.9059 17.532C38.3252 17.948 37.6492 18.156 36.8779 18.156ZM34.7719 13.151C34.7719 14.1997 34.9582 15.0273 35.3309 15.634C35.7036 16.2407 36.2192 16.544 36.8779 16.544C37.5366 16.544 38.0522 16.245 38.4249 15.647C38.8062 15.0403 38.9969 14.2083 38.9969 13.151C38.9969 12.1023 38.8062 11.279 38.4249 10.681C38.0522 10.0743 37.5322 9.771 36.8649 9.771C36.2062 9.771 35.6906 10.07 35.3179 10.668C34.9539 11.266 34.7719 12.0937 34.7719 13.151Z" fill="white"/>
<path d="M43.729 9.823H41.857V8.315H45.497V18H43.729V9.823Z" fill="white"/>
<defs>
<clipPath id="clip0_958_2367">
<rect width="31" height="35" fill="white" transform="translate(23 34)"/>
</clipPath>
</defs>
</svg>
