<svg width="77" height="90" viewBox="0 0 77 90" fill="none" xmlns="http://www.w3.org/2000/svg">
<rect opacity="0.1" y="13" width="76.6355" height="76.6355" rx="12" fill="#7558EA"/>
<g clip-path="url(#clip0_958_2377)">
<path d="M35.155 51.752C35.2097 51.7872 35.2683 51.8184 35.3308 51.8418L35.9987 52.0996L40.8106 53.951C41.7207 54.5486 42.2402 55.2047 42.2402 55.7555V58.0521C42.2402 59.3683 41.17 60.4385 39.8498 60.4385H37.1431C35.8229 60.4385 34.7527 59.3683 34.7527 58.0521V56.978C34.7527 56.4351 34.3153 55.9976 33.7724 55.9976C33.2294 55.9976 32.792 56.4351 32.792 56.978V58.0521C32.792 60.4503 34.7449 62.4032 37.147 62.4032H37.7211V65.2466C37.7211 65.7895 38.1586 66.227 38.7015 66.227C39.2444 66.227 39.6818 65.7895 39.6818 65.2466V62.4032H39.8498C42.2519 62.4032 44.2009 60.4503 44.2009 58.0521V55.7555C44.2009 54.4666 43.365 53.2518 41.7832 52.2441C41.7285 52.209 41.6699 52.1777 41.6074 52.1582L41.2129 52.0059C41.2129 52.0059 41.1817 51.9903 41.1661 51.9825L36.1237 50.0491C35.4792 49.6272 34.7488 48.9945 34.7488 48.2954V46.0027C34.7488 44.6825 35.8229 43.6123 37.1392 43.6123H39.8459C41.1661 43.6123 42.2362 44.6864 42.2362 46.0027V47.0728C42.2362 47.6158 42.6737 48.0532 43.2166 48.0532C43.7595 48.0532 44.197 47.6158 44.197 47.0728V46.0027C44.197 43.6006 42.2441 41.6477 39.842 41.6477H39.6779V39.0034C39.6779 38.4605 39.2405 38.0231 38.6976 38.0231C38.1547 38.0231 37.7172 38.4605 37.7172 39.0034V41.6477H37.1392C34.7371 41.6477 32.7842 43.6006 32.7842 46.0027V48.2954C32.7842 49.5921 33.581 50.756 35.1472 51.7559L35.155 51.752Z" fill="#7558EA"/>
<path d="M38.502 70C48.1532 70 56 62.1493 56 52.502C56 42.8546 48.1532 35 38.502 35C28.8507 35 21 42.8507 21 52.498C21 62.1454 28.8507 69.9961 38.502 69.9961V70ZM38.502 36.9646C47.0674 36.9646 54.0393 43.9365 54.0393 52.502C54.0393 61.0674 47.0713 68.0393 38.502 68.0393C29.9326 68.0393 22.9646 61.0674 22.9646 52.498C22.9646 43.9287 29.9326 36.9646 38.502 36.9646Z" fill="#7558EA"/>
</g>
<circle cx="39" cy="13" r="13" fill="#7558EA"/>
<path d="M35.0263 18.156C34.2637 18.156 33.5877 17.948 32.9983 17.532C32.4177 17.116 31.9627 16.531 31.6333 15.777C31.3127 15.0143 31.1523 14.139 31.1523 13.151C31.1523 12.163 31.3127 11.292 31.6333 10.538C31.9627 9.784 32.4177 9.199 32.9983 8.783C33.579 8.367 34.2507 8.159 35.0133 8.159C35.7847 8.159 36.465 8.367 37.0543 8.783C37.6437 9.199 38.0987 9.784 38.4193 10.538C38.7487 11.292 38.9133 12.163 38.9133 13.151C38.9133 14.139 38.7487 15.0143 38.4193 15.777C38.0987 16.531 37.6437 17.116 37.0543 17.532C36.4737 17.948 35.7977 18.156 35.0263 18.156ZM32.9203 13.151C32.9203 14.1997 33.1067 15.0273 33.4793 15.634C33.852 16.2407 34.3677 16.544 35.0263 16.544C35.685 16.544 36.2007 16.245 36.5733 15.647C36.9547 15.0403 37.1453 14.2083 37.1453 13.151C37.1453 12.1023 36.9547 11.279 36.5733 10.681C36.2007 10.0743 35.6807 9.771 35.0133 9.771C34.3547 9.771 33.839 10.07 33.4663 10.668C33.1023 11.266 32.9203 12.0937 32.9203 13.151Z" fill="white"/>
<path d="M43.4374 18.156C42.9088 18.156 42.4061 18.0563 41.9294 17.857C41.4614 17.6577 41.0584 17.376 40.7204 17.012C40.3911 16.648 40.1658 16.2277 40.0444 15.751L41.5914 15.205C41.7474 15.6383 41.9858 15.972 42.3064 16.206C42.6271 16.44 43.0041 16.557 43.4374 16.557C43.9574 16.557 44.3734 16.4097 44.6854 16.115C45.0061 15.8203 45.1664 15.4217 45.1664 14.919C45.1664 14.425 45.0061 14.035 44.6854 13.749C44.3734 13.4543 43.9531 13.307 43.4244 13.307C43.0604 13.307 42.7311 13.3763 42.4364 13.515L42.0334 12.67L44.5424 9.81H40.5904V8.315H46.5314V9.706L44.5424 12.033C45.2704 12.1457 45.8511 12.4577 46.2844 12.969C46.7178 13.4717 46.9344 14.1043 46.9344 14.867C46.9344 15.4823 46.7828 16.0413 46.4794 16.544C46.1761 17.0467 45.7558 17.441 45.2184 17.727C44.6898 18.013 44.0961 18.156 43.4374 18.156Z" fill="white"/>
<defs>
<clipPath id="clip0_958_2377">
<rect width="35" height="35" fill="white" transform="translate(21 35)"/>
</clipPath>
</defs>
</svg>
