<?xml version="1.0" encoding="iso-8859-1"?>
<!-- Uploaded to: SVG Repo, www.svgrepo.com, Generator: SVG Repo Mixer Tools -->
<svg fill="#000000" height="800px" width="800px" version="1.1" id="Layer_1" xmlns="http://www.w3.org/2000/svg" xmlns:xlink="http://www.w3.org/1999/xlink" 
	 viewBox="0 0 512 512" xml:space="preserve">
<g>
	<g>
		<path d="M469.343,53.383H42.657C19.136,53.383,0,72.513,0,96.025v163.863v68.257v60.596v55.421
			c0,7.982,6.472,14.455,14.455,14.455h69.76c7.984,0,14.455-6.473,14.455-14.455v-40.966h314.659v40.966
			c0,7.982,6.472,14.455,14.455,14.455h69.76c7.984,0,14.455-6.473,14.455-14.455v-55.421v-60.596v-68.257V96.025
			C512,72.513,492.864,53.383,469.343,53.383z M69.76,429.707H28.91v-26.511h40.85V429.707z M84.215,374.286H28.91v-31.686h288.524
			c7.984,0,14.455-6.473,14.455-14.455s-6.472-14.455-14.455-14.455H28.91v-53.802c0-13.08,10.64-23.721,23.721-23.721h28.982
			h145.953h56.866h145.953h28.982c13.08,0,23.721,10.64,23.721,23.721v53.802h-64.716c-7.984,0-14.455,6.473-14.455,14.455
			s6.472,14.455,14.455,14.455h64.716v31.686h-55.305H84.215z M96.069,207.259v-24.342c0-16.524,13.442-29.965,29.965-29.965h57.112
			c16.524-0.001,29.965,13.442,29.965,29.965v24.342H96.069z M298.888,207.259v-24.342c0-16.524,13.442-29.965,29.965-29.965h57.112
			c16.524-0.001,29.965,13.442,29.965,29.965v24.342H298.888z M483.09,429.707h-40.85v-26.511h40.85V429.707z M483.09,212.912
			c-7.132-3.617-15.192-5.655-23.721-5.655h-14.527v-24.342c0-32.465-26.411-58.876-58.876-58.876h-57.112
			c-32.463,0-58.876,26.411-58.876,58.876v24.342h-27.956v-24.342c0-32.465-26.411-58.876-58.876-58.876h-57.112
			c-32.463,0-58.876,26.411-58.876,58.876v24.342H52.631c-8.529,0-16.589,2.038-23.721,5.655V96.025
			c0-7.572,6.167-13.732,13.747-13.732h426.686c7.58,0,13.747,6.161,13.747,13.732V212.912z"/>
	</g>
</g>
<g>
	<g>
		<path d="M371.034,313.69h-7.589c-7.984,0-14.455,6.473-14.455,14.455s6.472,14.455,14.455,14.455h7.589
			c7.984,0,14.455-6.473,14.455-14.455S379.017,313.69,371.034,313.69z"/>
	</g>
</g>
</svg>