<svg width="77" height="89" viewBox="0 0 77 89" fill="none" xmlns="http://www.w3.org/2000/svg">
<rect opacity="0.1" y="12" width="76.6355" height="76.6355" rx="12" fill="#43B0FF"/>
<g clip-path="url(#clip0_958_2389)">
<path d="M38.9029 45.2961C31.5704 45.2961 25.5977 51.3599 25.5977 58.8236C25.5977 66.2874 31.5618 72.3511 38.9029 72.3511C46.2441 72.3511 52.2082 66.2874 52.2082 58.8236C52.2082 51.3599 46.2441 45.2961 38.9029 45.2961ZM38.9029 70.5924C32.5171 70.5924 27.3189 65.3074 27.3189 58.8149C27.3189 52.3224 32.5171 47.0374 38.9029 47.0374C45.2888 47.0374 50.487 52.3224 50.487 58.8149C50.487 65.3074 45.2888 70.5924 38.9029 70.5924Z" fill="#43B0FF"/>
<path d="M56.5541 46.565C56.7177 46.7225 56.9328 46.8013 57.1394 46.8013C57.3717 46.8013 57.5955 46.705 57.7676 46.5213C58.0947 46.1713 58.0688 45.6112 57.7246 45.2875L56.1841 43.8262C56.1841 43.8262 56.1841 43.8263 56.1841 43.8175L52.3371 40.1688C52.3371 40.1688 52.3371 40.1688 52.3285 40.1688L50.7879 38.7075C50.4437 38.375 49.8929 38.4012 49.5745 38.7512C49.2474 39.1012 49.2732 39.6613 49.6175 39.985L50.5384 40.86L47.5692 44.0975C45.9684 43.1262 44.2128 42.4 42.3366 41.9975V35.75H44.2902C44.7636 35.75 45.1508 35.3563 45.1508 34.875C45.1508 34.3937 44.7464 34 44.273 34H41.4674C41.4674 34 41.4674 34 41.4588 34H36.338C36.338 34 36.338 34 36.3294 34H33.5324C33.059 34 32.6718 34.3937 32.6718 34.875C32.6718 35.3563 33.059 35.75 33.5324 35.75H35.4774V41.9888C27.792 43.6075 22 50.5375 22 58.815C22 68.2913 29.5821 76 38.9027 76C48.2233 76 55.8054 68.2913 55.8054 58.815C55.8054 55.1225 54.6436 51.71 52.6899 48.9013L55.6419 45.6813L56.5628 46.5563L56.5541 46.565ZM37.1987 35.75H40.5981V41.7175C40.0387 41.6562 39.4707 41.63 38.9027 41.63C38.3347 41.63 37.7581 41.6562 37.1987 41.7175V35.75ZM38.9027 74.25C30.5374 74.25 23.7213 67.3288 23.7213 58.815C23.7213 50.3013 30.5288 43.3887 38.9027 43.3887C47.2766 43.3887 54.0841 50.31 54.0841 58.8238C54.0841 67.3375 47.2766 74.2587 38.9027 74.2587V74.25ZM51.6055 47.5187C50.8224 46.6175 49.9531 45.795 49.0065 45.0775L51.7863 42.0412L54.3768 44.5L51.6055 47.5187Z" fill="#43B0FF"/>
<path d="M38.9025 53.8888C40.0041 53.8888 40.8991 54.7988 40.8991 55.9188C40.8991 56.4001 41.2864 56.7938 41.7598 56.7938C42.2331 56.7938 42.6204 56.4001 42.6204 55.9188C42.6204 54.1426 41.3983 52.6551 39.7631 52.2526V51.5176C39.7631 51.0363 39.3758 50.6426 38.9025 50.6426C38.4291 50.6426 38.0418 51.0363 38.0418 51.5176V52.2526C36.4067 52.6463 35.1846 54.1338 35.1846 55.9188C35.1846 58.0013 36.8542 59.6988 38.9025 59.6988C40.0041 59.6988 40.8991 60.6088 40.8991 61.7288C40.8991 62.8488 40.0041 63.7588 38.9025 63.7588C37.8009 63.7588 36.9058 62.8488 36.9058 61.7288C36.9058 61.2476 36.5185 60.8538 36.0452 60.8538C35.5719 60.8538 35.1846 61.2476 35.1846 61.7288C35.1846 63.5051 36.4067 64.9926 38.0418 65.3951V66.1301C38.0418 66.6113 38.4291 67.0051 38.9025 67.0051C39.3758 67.0051 39.7631 66.6113 39.7631 66.1301V65.3951C41.3983 65.0013 42.6204 63.5138 42.6204 61.7288C42.6204 59.6463 40.9508 57.9488 38.9025 57.9488C37.8009 57.9488 36.9058 57.0388 36.9058 55.9188C36.9058 54.7988 37.8009 53.8888 38.9025 53.8888Z" fill="#43B0FF"/>
</g>
<circle cx="40" cy="13" r="13" fill="#43B0FF"/>
<path d="M35.6211 18.1559C34.8584 18.1559 34.1824 17.9479 33.5931 17.5319C33.0124 17.1159 32.5574 16.5309 32.2281 15.7769C31.9074 15.0143 31.7471 14.1389 31.7471 13.1509C31.7471 12.1629 31.9074 11.2919 32.2281 10.5379C32.5574 9.78394 33.0124 9.19894 33.5931 8.78294C34.1737 8.36694 34.8454 8.15894 35.6081 8.15894C36.3794 8.15894 37.0597 8.36694 37.6491 8.78294C38.2384 9.19894 38.6934 9.78394 39.0141 10.5379C39.3434 11.2919 39.5081 12.1629 39.5081 13.1509C39.5081 14.1389 39.3434 15.0143 39.0141 15.7769C38.6934 16.5309 38.2384 17.1159 37.6491 17.5319C37.0684 17.9479 36.3924 18.1559 35.6211 18.1559ZM33.5151 13.1509C33.5151 14.1996 33.7014 15.0273 34.0741 15.6339C34.4467 16.2406 34.9624 16.5439 35.6211 16.5439C36.2797 16.5439 36.7954 16.2449 37.1681 15.6469C37.5494 15.0403 37.7401 14.2083 37.7401 13.1509C37.7401 12.1023 37.5494 11.2789 37.1681 10.6809C36.7954 10.0743 36.2754 9.77094 35.6081 9.77094C34.9494 9.77094 34.4337 10.0699 34.0611 10.6679C33.6971 11.2659 33.5151 12.0936 33.5151 13.1509Z" fill="white"/>
<path d="M40.8212 16.6609L43.4472 13.9179C44.0105 13.3286 44.4222 12.8823 44.6822 12.5789C44.9422 12.2669 45.1285 11.9983 45.2412 11.7729C45.3538 11.5389 45.4102 11.3006 45.4102 11.0579C45.4102 10.6593 45.2845 10.3429 45.0332 10.1089C44.7818 9.86627 44.4525 9.74494 44.0452 9.74494C43.6205 9.74494 43.2565 9.86627 42.9532 10.1089C42.6585 10.3429 42.4418 10.6896 42.3032 11.1489L40.7562 10.6679C40.8602 10.1653 41.0682 9.7276 41.3802 9.35494C41.7008 8.9736 42.0952 8.67894 42.5632 8.47094C43.0312 8.26294 43.5252 8.15894 44.0452 8.15894C44.6605 8.15894 45.2065 8.27594 45.6832 8.50994C46.1598 8.73527 46.5282 9.05594 46.7882 9.47194C47.0568 9.87927 47.1912 10.3473 47.1912 10.8759C47.1912 11.3959 47.0482 11.9029 46.7622 12.3969C46.4848 12.8823 46.0298 13.4543 45.3972 14.1129L43.1222 16.5049H47.3212V17.9999H40.8212V16.6609Z" fill="white"/>
<defs>
<clipPath id="clip0_958_2389">
<rect width="36" height="42" fill="white" transform="translate(22 34)"/>
</clipPath>
</defs>
</svg>
