<svg width="77" height="90" viewBox="0 0 77 90" fill="none" xmlns="http://www.w3.org/2000/svg">
<rect opacity="0.1" y="13" width="76.6355" height="76.6355" rx="12" fill="#7558EA"/>
<g clip-path="url(#clip0_958_2413)">
<path d="M27.8352 49.4709C30.8389 49.4709 33.2778 47.0437 33.2778 44.0543C33.2778 41.0649 30.8389 38.6377 27.8352 38.6377C24.8314 38.6377 22.3926 41.0649 22.3926 44.0543C22.3926 47.0437 24.8314 49.4709 27.8352 49.4709ZM27.8352 40.8318C29.6195 40.8318 31.0732 42.2785 31.0732 44.0543C31.0732 45.8301 29.6195 47.2768 27.8352 47.2768C26.0508 47.2768 24.5972 45.8301 24.5972 44.0543C24.5972 42.2785 26.0508 40.8318 27.8352 40.8318Z" fill="#7558EA"/>
<path d="M51.4037 57.623L47.7247 61.2844L44.1009 57.6779L42.5439 59.2275L46.1677 62.8339L42.5439 66.4473L44.1009 67.9968L47.7247 64.3903L51.4037 68.0517L52.9675 66.5021L49.2817 62.8339L52.9675 59.1726L51.4037 57.623Z" fill="#7558EA"/>
<path d="M47.2838 38V40.1941H51.2107L48.0554 43.1355C47.5456 43.6086 47.0909 44.1365 46.7051 44.7124L48.5308 45.9397C48.827 45.5009 49.1784 45.0964 49.5642 44.733L52.7953 41.7162V45.7203H54.9999V38H47.2838Z" fill="#7558EA"/>
<path d="M47.7937 47.3316L45.7614 46.4883C44.6522 49.1417 42.0687 50.849 39.1821 50.849C39.0994 50.849 39.0098 50.849 38.9203 50.8421L38.8031 50.8353C38.6929 50.8284 38.5758 50.8284 38.4656 50.8284C37.9075 50.8284 37.3426 50.8764 36.7914 50.9792C36.0543 51.1164 35.3309 51.3358 34.6489 51.6443C34.4628 51.7266 34.2699 51.8226 34.0908 51.9186L35.1242 53.8589C35.262 53.7835 35.4067 53.715 35.5514 53.6533C36.075 53.4201 36.6261 53.2487 37.1841 53.1459C37.6871 53.0567 38.2038 53.0156 38.7205 53.0362L38.8376 53.043C38.9478 53.0499 39.0649 53.0499 39.1752 53.0499C42.9574 53.043 46.3332 50.801 47.7937 47.3316Z" fill="#7558EA"/>
<path d="M29.8952 56.4437L28.2555 60.2284C27.9937 60.1873 27.7182 60.1667 27.4426 60.1667C24.4388 60.1667 22 62.5939 22 65.5833C22 68.5727 24.4388 70.9999 27.4426 70.9999C30.4463 70.9999 32.8852 68.5727 32.8852 65.5833C32.8852 63.6498 31.8587 61.9494 30.3223 60.9895L31.9138 57.3145C32.3409 56.3271 33.0023 55.4289 33.829 54.7296L32.4029 53.0635C31.3213 53.9754 30.4532 55.1478 29.8952 56.4437ZM27.4426 68.8058C25.6582 68.8058 24.2046 67.3591 24.2046 65.5833C24.2046 63.8075 25.6582 62.3608 27.4426 62.3608C29.2269 62.3608 30.6806 63.8075 30.6806 65.5833C30.6806 67.3591 29.2269 68.8058 27.4426 68.8058Z" fill="#7558EA"/>
</g>
<circle cx="39" cy="13" r="13" fill="#7558EA"/>
<path d="M35.0263 18.1559C34.2637 18.1559 33.5877 17.9479 32.9983 17.5319C32.4177 17.1159 31.9627 16.5309 31.6333 15.7769C31.3127 15.0143 31.1523 14.1389 31.1523 13.1509C31.1523 12.1629 31.3127 11.2919 31.6333 10.5379C31.9627 9.78394 32.4177 9.19894 32.9983 8.78294C33.579 8.36694 34.2507 8.15894 35.0133 8.15894C35.7847 8.15894 36.465 8.36694 37.0543 8.78294C37.6437 9.19894 38.0987 9.78394 38.4193 10.5379C38.7487 11.2919 38.9133 12.1629 38.9133 13.1509C38.9133 14.1389 38.7487 15.0143 38.4193 15.7769C38.0987 16.5309 37.6437 17.1159 37.0543 17.5319C36.4737 17.9479 35.7977 18.1559 35.0263 18.1559ZM32.9203 13.1509C32.9203 14.1996 33.1067 15.0273 33.4793 15.6339C33.852 16.2406 34.3677 16.5439 35.0263 16.5439C35.685 16.5439 36.2007 16.2449 36.5733 15.6469C36.9547 15.0403 37.1453 14.2083 37.1453 13.1509C37.1453 12.1023 36.9547 11.2789 36.5733 10.6809C36.2007 10.0743 35.6807 9.77094 35.0133 9.77094C34.3547 9.77094 33.839 10.0699 33.4663 10.6679C33.1023 11.2659 32.9203 12.0936 32.9203 13.1509Z" fill="white"/>
<path d="M43.4374 18.1559C42.9088 18.1559 42.4061 18.0563 41.9294 17.8569C41.4614 17.6576 41.0584 17.3759 40.7204 17.0119C40.3911 16.6479 40.1658 16.2276 40.0444 15.7509L41.5914 15.2049C41.7474 15.6383 41.9858 15.9719 42.3064 16.2059C42.6271 16.4399 43.0041 16.5569 43.4374 16.5569C43.9574 16.5569 44.3734 16.4096 44.6854 16.1149C45.0061 15.8203 45.1664 15.4216 45.1664 14.9189C45.1664 14.4249 45.0061 14.0349 44.6854 13.7489C44.3734 13.4543 43.9531 13.3069 43.4244 13.3069C43.0604 13.3069 42.7311 13.3763 42.4364 13.5149L42.0334 12.6699L44.5424 9.80994H40.5904V8.31494H46.5314V9.70594L44.5424 12.0329C45.2704 12.1456 45.8511 12.4576 46.2844 12.9689C46.7178 13.4716 46.9344 14.1043 46.9344 14.8669C46.9344 15.4823 46.7828 16.0413 46.4794 16.5439C46.1761 17.0466 45.7558 17.4409 45.2184 17.7269C44.6898 18.0129 44.0961 18.1559 43.4374 18.1559Z" fill="white"/>
<defs>
<clipPath id="clip0_958_2413">
<rect width="33" height="33" fill="white" transform="translate(22 38)"/>
</clipPath>
</defs>
</svg>
