<svg width="77" height="89" viewBox="0 0 77 89" fill="none" xmlns="http://www.w3.org/2000/svg">
<rect opacity="0.1" y="12" width="76.6355" height="76.6355" rx="12" fill="#7558EA"/>
<path d="M24.7829 42.6811C24.3507 42.6811 24 42.3348 24 41.9087C24 41.4827 24.3507 41.1354 24.7829 41.1354H28.4475C28.6034 40.3665 28.9885 39.6791 29.5286 39.1448C30.2454 38.4377 31.234 38 32.326 38C33.4179 38 34.4075 38.4377 35.1233 39.1448C35.8392 39.8519 36.2823 40.8293 36.2823 41.9078C36.2823 42.9864 35.8392 43.9638 35.1233 44.6708C34.4075 45.3779 33.4179 45.8156 32.326 45.8156C31.234 45.8156 30.2445 45.3779 29.5286 44.6708C28.9885 44.1374 28.6034 43.4491 28.4475 42.6802H24.7829V42.6811ZM32.326 58.1844C33.4188 58.1844 34.4075 58.6221 35.1233 59.3292C35.8392 60.0363 36.2823 61.0137 36.2823 62.0922C36.2823 63.1707 35.8392 64.1481 35.1233 64.8552C34.4075 65.5623 33.4179 66 32.326 66C31.234 66 30.2445 65.5623 29.5286 64.8552C28.9885 64.3218 28.6034 63.6335 28.4475 62.8646H24.7829C24.3507 62.8646 24 62.5182 24 62.0913C24 61.6644 24.3507 61.3189 24.7829 61.3189H28.4475C28.6034 60.55 28.9885 59.8617 29.5286 59.3283C30.2454 58.6212 31.234 58.1835 32.326 58.1835V58.1844ZM34.0169 60.422C33.5837 59.9942 32.9866 59.7301 32.326 59.7301C31.6654 59.7301 31.0673 59.9942 30.635 60.422C30.2019 60.8499 29.9346 61.4397 29.9346 62.0922C29.9346 62.7447 30.2019 63.3354 30.635 63.7624C31.0682 64.1902 31.6654 64.4542 32.326 64.4542C32.9866 64.4542 33.5846 64.1902 34.0169 63.7624C34.45 63.3345 34.7174 62.7447 34.7174 62.0922C34.7174 61.4397 34.45 60.849 34.0169 60.422ZM38.3475 62.8655C37.9153 62.8655 37.5655 62.5191 37.5655 62.0922C37.5655 61.6653 37.9162 61.3198 38.3475 61.3198H51.2171C51.6493 61.3198 52 61.6661 52 62.0922C52 62.5182 51.6493 62.8655 51.2171 62.8655H38.3475ZM42.0647 49.6384C41.4041 49.6384 40.806 49.9024 40.3737 50.3303C39.9406 50.7581 39.6733 51.348 39.6733 52.0004C39.6733 52.6529 39.9406 53.2437 40.3737 53.6706C40.806 54.0985 41.4041 54.3625 42.0647 54.3625C42.7253 54.3625 43.3233 54.0985 43.7556 53.6706C44.1878 53.2428 44.4561 52.6529 44.4561 52.0004C44.4561 51.348 44.1878 50.7572 43.7556 50.3303C43.3224 49.9024 42.7253 49.6384 42.0647 49.6384ZM39.2673 49.2374C39.9832 48.5303 40.9727 48.0926 42.0647 48.0926C43.1566 48.0926 44.1462 48.5303 44.862 49.2374C45.5779 49.9445 46.021 50.921 46.021 52.0004C46.021 53.0799 45.5779 54.0564 44.862 54.7635C44.1462 55.4706 43.1575 55.9083 42.0647 55.9083C40.9718 55.9083 39.9832 55.4706 39.2673 54.7635C38.7272 54.23 38.3421 53.5426 38.1862 52.7729H24.7829C24.3507 52.7729 24 52.4265 24 52.0004C24 51.5744 24.3507 51.228 24.7829 51.228H38.1862C38.3421 50.4592 38.7272 49.7709 39.2673 49.2374ZM51.2171 51.228C51.6493 51.228 52 51.5744 52 52.0004C52 52.4265 51.6493 52.7729 51.2171 52.7729H48.0871C47.6549 52.7729 47.3042 52.4265 47.3042 52.0004C47.3042 51.5744 47.6549 51.228 48.0871 51.228H51.2171ZM34.0169 40.2385C33.5837 39.8107 32.9866 39.5467 32.326 39.5467C31.6654 39.5467 31.0673 39.8107 30.635 40.2385C30.2019 40.6664 29.9346 41.2562 29.9346 41.9087C29.9346 42.5612 30.2019 43.1519 30.635 43.5789C31.0682 44.0067 31.6654 44.2708 32.326 44.2708C32.9866 44.2708 33.5846 44.0067 34.0169 43.5789C34.45 43.151 34.7174 42.5612 34.7174 41.9087C34.7174 41.2562 34.45 40.6655 34.0169 40.2385ZM38.3475 42.682C37.9153 42.682 37.5655 42.3356 37.5655 41.9096C37.5655 41.4836 37.9162 41.1363 38.3475 41.1363H51.2171C51.6493 41.1363 52 41.4827 52 41.9096C52 42.3365 51.6493 42.682 51.2171 42.682H38.3475Z" fill="#7558EA"/>
<circle cx="40" cy="13" r="13" fill="#7558EA"/>
<path d="M36.8779 18.1559C36.1152 18.1559 35.4392 17.9479 34.8499 17.5319C34.2692 17.1159 33.8142 16.5309 33.4849 15.7769C33.1642 15.0143 33.0039 14.1389 33.0039 13.1509C33.0039 12.1629 33.1642 11.2919 33.4849 10.5379C33.8142 9.78394 34.2692 9.19894 34.8499 8.78294C35.4306 8.36694 36.1022 8.15894 36.8649 8.15894C37.6362 8.15894 38.3166 8.36694 38.9059 8.78294C39.4952 9.19894 39.9502 9.78394 40.2709 10.5379C40.6002 11.2919 40.7649 12.1629 40.7649 13.1509C40.7649 14.1389 40.6002 15.0143 40.2709 15.7769C39.9502 16.5309 39.4952 17.1159 38.9059 17.5319C38.3252 17.9479 37.6492 18.1559 36.8779 18.1559ZM34.7719 13.1509C34.7719 14.1996 34.9582 15.0273 35.3309 15.6339C35.7036 16.2406 36.2192 16.5439 36.8779 16.5439C37.5366 16.5439 38.0522 16.2449 38.4249 15.6469C38.8062 15.0403 38.9969 14.2083 38.9969 13.1509C38.9969 12.1023 38.8062 11.2789 38.4249 10.6809C38.0522 10.0743 37.5322 9.77094 36.8649 9.77094C36.2062 9.77094 35.6906 10.0699 35.3179 10.6679C34.9539 11.2659 34.7719 12.0936 34.7719 13.1509Z" fill="white"/>
<path d="M43.729 9.82294H41.857V8.31494H45.497V17.9999H43.729V9.82294Z" fill="white"/>
</svg>
