<svg width="67" height="68" viewBox="0 0 67 68" fill="none" xmlns="http://www.w3.org/2000/svg">
<path d="M22.3686 17.1714C22.3686 16.6218 22.8062 16.1767 23.3467 16.1767H23.8006C24.3411 16.1767 24.7787 16.6218 24.7787 17.1714C24.7787 17.721 24.3411 18.1661 23.8006 18.1661H23.3467C22.8062 18.1661 22.3686 17.721 22.3686 17.1714ZM58.0206 16.1767H27.5074C26.967 16.1767 26.5293 16.6218 26.5293 17.1714C26.5293 17.721 26.967 18.1661 27.5074 18.1661H48.5104V62.8785C48.5104 63.4282 48.9481 63.8732 49.4885 63.8732C50.029 63.8732 50.4666 63.4282 50.4666 62.8785V18.1661H58.0194C58.5599 18.1661 58.9975 17.721 58.9975 17.1714C58.9975 16.6218 58.5586 16.1767 58.0181 16.1767H58.0206ZM45.6237 56.8326H10.4883V18.1661H19.5108C20.0512 18.1661 20.4889 17.721 20.4889 17.1714C20.4889 16.6218 20.0512 16.1767 19.5108 16.1767H10.4883V8.49469C10.4883 7.94506 10.0507 7.5 9.51022 7.5C8.96976 7.5 8.53211 7.94506 8.53211 8.49469V56.8326H0.978108C0.437641 56.8326 0 57.2777 0 57.8273C0 58.3769 0.437641 58.822 0.978108 58.822H45.625C46.1655 58.822 46.6031 58.3769 46.6031 57.8273C46.6031 57.2777 46.1642 56.8326 45.6237 56.8326ZM49.4885 65.1179C48.9481 65.1179 48.5104 65.5629 48.5104 66.1125V66.504C48.5104 67.0537 48.9481 67.4987 49.4885 67.4987C50.029 67.4987 50.4666 67.0537 50.4666 66.504V66.1125C50.4666 65.5629 50.0277 65.1179 49.4885 65.1179Z" fill="#7558EA"/>
<path d="M20.4889 48.296V32.7521L29.5 26.8886L42.7672 35.5219C42.9302 35.629 43.1133 35.6788 43.2939 35.6788C43.6161 35.6788 43.9321 35.5168 44.119 35.2197C44.4099 34.7568 44.2783 34.1408 43.8231 33.845L30.028 24.8673C29.7057 24.6582 29.2956 24.6582 28.9734 24.8673L18.9653 31.3799L15.1795 33.8437C14.7243 34.1396 14.5914 34.7555 14.8836 35.2184C15.1745 35.6801 15.7789 35.8178 16.2354 35.5194L18.5352 34.0235V49.2881C18.5352 49.8378 18.9728 50.2828 19.5133 50.2828H39.4918C40.0323 50.2828 40.4699 49.8378 40.4699 49.2881V37.4973C40.4699 36.9476 40.0323 36.5026 39.4918 36.5026C38.9513 36.5026 38.5137 36.9476 38.5137 37.4973V48.2934H34.5323V41.0514C34.5323 40.5017 34.0946 40.0567 33.5542 40.0567H25.4547C24.9142 40.0567 24.4766 40.5017 24.4766 41.0514V45.4586C24.4766 46.0082 24.9142 46.4533 25.4547 46.4533C25.9951 46.4533 26.4328 46.0082 26.4328 45.4586V42.046H32.5761V48.2934H20.4939L20.4889 48.296Z" fill="#564599"/>
<circle cx="47.5" cy="19.5" r="19.5" fill="#7558EA" fill-opacity="0.08"/>
</svg>
