<svg width="55" height="62" viewBox="0 0 55 62" fill="none" xmlns="http://www.w3.org/2000/svg">
<path d="M39.3142 26.7183C40.5611 26.7183 41.6916 27.2258 42.5097 28.0447C43.3278 28.8644 43.8335 29.9962 43.8335 31.2465C43.8335 32.4968 43.3261 33.6243 42.5071 34.4449C41.6916 35.2663 40.5611 35.7739 39.3142 35.7739C38.0672 35.7739 36.9367 35.2663 36.1186 34.4475L36.0487 34.3714C35.272 33.5569 34.7939 32.4553 34.7939 31.2465C34.7939 30.0377 35.3005 28.8644 36.1177 28.0447C36.9358 27.225 38.0663 26.7183 39.3142 26.7183ZM40.8019 29.7558C40.4213 29.3745 39.8958 29.1393 39.3142 29.1393C38.7325 29.1393 38.207 29.3754 37.8264 29.7558C37.4458 30.1371 37.2111 30.6637 37.2111 31.2465C37.2111 31.8293 37.426 32.3144 37.7755 32.6879L37.8264 32.7363C38.207 33.1176 38.7325 33.3528 39.3142 33.3528C39.8958 33.3528 40.4213 33.1168 40.8019 32.7363C41.1833 32.3584 41.4172 31.8319 41.4172 31.2465C41.4172 30.6611 41.1816 30.1371 40.8019 29.7558Z" fill="#6B5CA6"/>
<path d="M17.0408 16H48.9592C50.6179 16 52.1272 16.6805 53.2223 17.7769C54.3208 18.8724 55 20.3873 55 22.0518V55.9482C55 57.6127 54.32 59.1276 53.2266 60.2231L53.1533 60.2906C52.0642 61.3472 50.5833 62 48.9592 62H17.0408C15.3821 62 13.8728 61.3195 12.7777 60.2231C11.6792 59.1276 11 57.6127 11 55.9482V22.0518C11 20.3873 11.68 18.8724 12.7734 17.7769L12.8467 17.7094C13.9358 16.6528 15.4167 16 17.0408 16ZM34.5106 45.0725L40.2657 38.7605C40.7136 38.2694 41.4747 38.2356 41.964 38.6844L52.5828 50.3227V22.0509C52.5828 21.0531 52.1746 20.1443 51.5179 19.4872C50.8629 18.8283 49.956 18.4202 48.9584 18.4202H17.0408C16.0699 18.4202 15.1845 18.8067 14.5321 19.4327L14.4812 19.4872C13.8245 20.1452 13.4163 21.0539 13.4163 22.0509V50.6894L25.6368 37.2888C26.0846 36.7977 26.8458 36.764 27.3351 37.2127L34.5089 45.0717L34.5106 45.0725ZM52.5837 53.8947L41.1529 41.3605L36.139 46.858L41.6517 52.9029C42.0995 53.394 42.0659 54.1558 41.5757 54.6045C41.0856 55.0533 40.3253 55.0196 39.8774 54.5285L26.5247 39.888L13.4172 54.2621V55.9482C13.4172 56.9461 13.8253 57.8548 14.4821 58.512C15.1371 59.1708 16.044 59.5789 17.0416 59.5789H48.9592C49.9301 59.5789 50.8155 59.1924 51.4679 58.5664L51.5188 58.512C52.1755 57.8539 52.5837 56.9452 52.5837 55.9482V53.8947Z" fill="#7558EA"/>
<circle cx="19.5" cy="19.5" r="19.5" fill="#7558EA" fill-opacity="0.08"/>
</svg>
