<svg width="70" height="63" viewBox="0 0 70 63" fill="none" xmlns="http://www.w3.org/2000/svg">
<g clip-path="url(#clip0_1001_2103)">
<path d="M54.0172 34.8434C52.8869 34.8434 51.96 33.8881 51.9826 32.7509C51.9826 32.6372 51.9826 32.5462 52.0052 32.4325L52.8643 27.4062L49.2925 24.0401C48.4786 23.2441 48.4786 21.9477 49.2473 21.1289C49.5637 20.8105 49.9707 20.6058 50.4228 20.5376L55.4414 19.8098L57.5212 15.352C58.0185 14.3286 59.2393 13.9192 60.2566 14.4195C60.6635 14.6242 60.98 14.9426 61.1834 15.352L63.4215 19.9235L68.2592 20.5376C69.3669 20.6968 70.1582 21.743 69.9773 22.8574C69.9095 23.3123 69.706 23.7217 69.3895 24.0401L65.7725 27.5881L66.6994 32.4098C66.8802 33.5242 66.1342 34.5932 65.0265 34.7751C64.5744 34.8434 64.1223 34.7751 63.7379 34.5704L59.2619 32.2051C57.6116 33.2513 55.8483 34.1156 54.0398 34.8206L54.0172 34.8434ZM51.1914 22.7437L54.4919 25.9961C54.9667 26.4737 55.1927 27.156 55.0797 27.8156L54.2885 32.387L58.3802 30.2264C58.968 29.908 59.6914 29.908 60.2792 30.2264L64.3709 32.387L63.5797 27.8156C63.4667 27.156 63.6927 26.4737 64.1675 25.9961L67.468 22.7437L62.9015 22.0841C62.2459 21.9932 61.6582 21.561 61.3643 20.9697L59.3071 16.8076L57.2725 20.9697C56.9786 21.5838 56.3909 21.9932 55.7353 22.0841L51.1688 22.7437H51.1914ZM7.33502 34.8434C6.2047 34.8434 5.27784 33.8881 5.30045 32.7509C5.30045 32.6372 5.30045 32.5462 5.32305 32.4325L6.18209 27.4062L2.61029 24.0401C1.79646 23.2441 1.79646 21.9477 2.56507 21.1289C2.88156 20.8105 3.28848 20.6058 3.7406 20.5376L8.75922 19.8098L10.839 15.352C11.3363 14.3286 12.5571 13.9192 13.5744 14.4195C13.9813 14.6242 14.2978 14.9426 14.5012 15.352L16.7393 19.9235L21.577 20.5376C22.6848 20.6968 23.476 21.743 23.2951 22.8574C23.2273 23.3123 23.0238 23.7217 22.7074 24.0401L19.0903 27.5881L20.0172 32.4098C20.198 33.5242 19.452 34.5932 18.3443 34.7751C17.8922 34.8434 17.4401 34.7751 17.0558 34.5704L12.5797 32.2051C10.9294 33.2513 9.16614 34.1156 7.35763 34.8206L7.33502 34.8434ZM4.50922 22.7437L7.80975 25.9961C8.28449 26.4737 8.51055 27.156 8.39752 27.8156L7.6063 32.387L11.6981 30.2264C12.2858 29.908 13.0092 29.908 13.597 30.2264L17.6887 32.387L16.8975 27.8156C16.7845 27.156 17.0106 26.4737 17.4853 25.9961L20.7858 22.7437L16.2193 22.0841C15.5637 21.9932 14.976 21.561 14.6821 20.9697L12.6249 16.8076L10.5903 20.9697C10.2965 21.5838 9.70869 21.9932 9.0531 22.0841L4.48662 22.7437H4.50922ZM28.8563 26.7921C27.5451 26.7921 26.4826 25.7004 26.5052 24.3813C26.5052 24.2675 26.5052 24.1311 26.5278 24.0174L27.6808 17.2852L22.7978 12.4408C21.8709 11.5311 21.8483 10.03 22.7526 9.09751C23.1143 8.73361 23.589 8.48343 24.109 8.4152L30.8231 7.43722L33.8975 1.25094C34.5757 0.0682653 36.0677 -0.318377 37.2433 0.363933C37.605 0.568626 37.9215 0.887038 38.1249 1.25094L41.1316 7.36899L47.9135 8.4152C49.202 8.59715 50.0837 9.80256 49.9028 11.099C49.835 11.6221 49.5863 12.0997 49.2246 12.4636L44.3643 17.2397L45.4946 24.0628C45.7207 25.3592 44.8616 26.5874 43.5731 26.7921C43.0531 26.8831 42.5332 26.7921 42.081 26.5647L36.0677 23.3805C35.2991 23.6762 29.6249 27.0423 28.8789 26.8376L28.8563 26.7921ZM35.9999 21.0607C36.7233 20.8332 42.3749 24.2221 43.0983 24.5177L42.081 17.6946C41.9454 16.9213 42.1941 16.148 42.7592 15.6022L47.6196 10.826L40.8603 9.68884C40.0917 9.57512 39.4361 9.09751 39.097 8.39245L36.0903 2.2744C36.0903 2.2744 35.9547 2.2744 35.9095 2.2744L32.9028 8.39245C32.5637 9.09751 31.9082 9.57512 31.1395 9.68884L24.4254 10.6668L29.2406 15.6022C29.8058 16.148 30.0544 16.9213 29.9188 17.6946L28.7659 24.4267C31.0943 23.1304 33.5132 22.0159 35.9999 21.0834V21.0607Z" fill="#6B5CA6"/>
<path d="M38.0795 62.932C34.779 63.2049 31.4558 62.5908 28.4718 61.1125C27.0476 60.4984 24.9226 59.5432 25.0808 57.2688H22.5941C22.6845 58.5197 21.7577 59.5886 20.5143 59.7024C20.4691 59.7024 20.4239 59.7024 20.3787 59.7024H14.8853C13.6646 59.7024 12.6699 58.6789 12.6699 57.4507V44.6915C12.6699 43.4634 13.6646 42.4627 14.8853 42.4627H20.3787C21.6221 42.4627 22.6167 43.4861 22.5941 44.737C22.5941 44.7825 22.5941 44.8507 22.5941 44.8962H25.0808V43.9637C24.9226 41.8486 27.0476 40.8933 28.3135 40.302C30.0994 39.7334 31.3428 38.0731 31.388 36.1854V33.7291C31.388 31.2728 33.4 29.3168 35.8189 29.3396C38.2151 29.3396 40.1593 31.2955 40.1819 33.7063V39.2785H45.3135C47.4159 39.3013 49.1114 41.0298 49.0888 43.145C49.0888 44.1229 48.7045 45.0554 48.0263 45.7377C49.3827 47.2388 49.3827 49.5587 48.0263 51.0598C49.3827 52.5836 49.3827 54.8807 48.0263 56.4045C49.4731 57.9284 49.4279 60.3619 47.8907 61.8175C47.1899 62.4771 46.2856 62.8637 45.3361 62.8637C43.3468 62.75 40.3627 62.932 38.0569 62.932H38.0795ZM27.3415 56.1089V57.3598C27.2963 58.0648 28.1553 58.497 29.376 59.0201C32.247 60.8623 36.7909 60.7258 41.3574 60.6121C42.9625 60.5666 44.3641 60.5439 45.404 60.6121C46.2404 60.5439 46.8734 59.8161 46.8282 58.9746C46.783 58.1785 46.1274 57.5645 45.3361 57.5417C43.8893 57.4053 41.6287 58.0876 41.5835 56.4045C41.6513 54.7215 43.9119 55.4038 45.3361 55.2673C46.1726 55.2673 46.8508 54.5623 46.8282 53.698C46.8282 52.8793 46.15 52.197 45.3361 52.197H41.4478C40.8149 52.197 40.3175 51.6738 40.3401 51.037C40.3401 50.4229 40.8375 49.9226 41.4478 49.9226H45.3361C46.1726 49.9226 46.8508 49.2175 46.8282 48.376C46.8282 47.5572 46.15 46.8749 45.3361 46.8749H40.2723C39.6393 46.8749 39.142 46.3746 39.142 45.7377C39.142 45.1009 39.6393 44.6006 40.2723 44.6006H45.3361C46.1726 44.6006 46.8508 43.8955 46.8508 43.054C46.8508 42.2125 46.1726 41.5302 45.3361 41.5302H39.0968C38.4638 41.5302 37.9665 41.0298 37.9665 40.393V33.7063C37.9665 32.5237 36.9944 31.5684 35.7962 31.5684C34.6207 31.5684 33.6713 32.5464 33.6713 33.7291V36.1627C33.6713 38.619 32.2923 40.8479 30.122 41.9396C29.2856 42.3944 27.2058 43.1222 27.3415 43.85V47.1251C27.3415 47.7619 26.8215 48.2623 26.1885 48.2395C25.6008 48.2395 25.1034 47.7392 25.0808 47.1479H22.5941V54.9717H25.0808C25.1034 54.3349 25.6234 53.8572 26.2564 53.88C26.8441 53.9027 27.3189 54.4031 27.3415 54.9944V56.1089ZM14.8853 44.7143L14.9306 57.428H20.3787C20.2883 55.563 20.3335 46.5565 20.3335 44.7143H14.8853Z" fill="#43B0FF"/>
</g>
<g clip-path="url(#clip1_1001_2103)">
<circle cx="48.5" cy="27.5" r="19.5" fill="#43B0FF" fill-opacity="0.08"/>
</g>
<defs>
<clipPath id="clip0_1001_2103">
<rect width="68" height="63" fill="white" transform="translate(2)"/>
</clipPath>
<clipPath id="clip1_1001_2103">
<rect width="66" height="59" fill="white" transform="translate(0 3)"/>
</clipPath>
</defs>
</svg>
