<svg width="59" height="60" viewBox="0 0 59 60" fill="none" xmlns="http://www.w3.org/2000/svg">
<circle cx="19.5" cy="19.5" r="19.5" fill="#43B0FF" fill-opacity="0.08"/>
<path fill-rule="evenodd" clip-rule="evenodd" d="M23 21.5556C18.2749 21.5556 14.4445 25.5601 14.4445 30.5C14.4445 35.4399 18.2749 39.4444 23 39.4444C27.7252 39.4444 31.5555 35.4399 31.5555 30.5C31.5555 25.5601 27.7252 21.5556 23 21.5556ZM12 30.5C12 24.1487 16.9249 19 23 19C29.0752 19 34 24.1487 34 30.5C34 36.8513 29.0752 42 23 42C16.9249 42 12 36.8513 12 30.5Z" fill="#43B0FF"/>
<path fill-rule="evenodd" clip-rule="evenodd" d="M8 54.8804C8 46.11 14.9396 39 23.5 39C32.0605 39 39 46.11 39 54.8804V55.5658C39 56.7932 38.1609 57.8528 36.9886 58.1056L32.8119 59.0067C28.6221 59.9104 24.338 60.1975 20.0883 59.8679C19.4317 59.8171 18.9397 59.2302 18.9894 58.5576C19.0391 57.8848 19.6117 57.3808 20.2683 57.4316C24.2938 57.7438 28.3517 57.4719 32.3207 56.6158L36.4973 55.715C36.5663 55.7001 36.6154 55.6378 36.6154 55.5658V54.8804C36.6154 47.4591 30.7435 41.4431 23.5 41.4431C16.2566 41.4431 10.3846 47.4591 10.3846 54.8804V55.5658C10.3846 55.6378 10.4339 55.7001 10.5028 55.715L14.6794 56.6158C15.3237 56.7548 15.7361 57.4028 15.6005 58.0629C15.4648 58.723 14.8325 59.1457 14.1881 59.0067L10.0116 58.1056C8.83922 57.8528 8 56.7932 8 55.5658V54.8804Z" fill="#43B0FF"/>
<path fill-rule="evenodd" clip-rule="evenodd" d="M44.6838 8.70023C45.4358 6.43326 48.5644 6.43326 49.3161 8.70023L51.0522 13.9348H56.5491C58.9454 13.9348 59.9129 17.1002 57.9444 18.5011L53.5939 21.5977L55.278 26.6748C56.0375 28.9648 53.5049 30.9205 51.5664 29.5408L46.9999 26.2908L42.4337 29.5408C40.4953 30.9205 37.9626 28.9648 38.7222 26.6748L40.4062 21.5977L36.0555 18.5011C34.0872 17.1002 35.0545 13.9348 37.4508 13.9348H42.9477L44.6838 8.70023ZM46.9999 9.50709L44.982 15.5918C44.8132 16.1001 44.3477 16.4419 43.8239 16.4419H37.4508L42.5585 20.0772C43.0066 20.3962 43.1945 20.9808 43.0188 21.5102L41.0383 27.4817L46.3023 23.735C46.7218 23.4364 47.2783 23.4364 47.6976 23.735L52.9618 27.4817L50.9813 21.5102C50.8056 20.9808 50.9933 20.3962 51.4414 20.0772L56.5491 16.4419H50.1762C49.6525 16.4419 49.1867 16.1001 49.0181 15.5918L46.9999 9.50709Z" fill="#6B5CA6"/>
</svg>
