<?xml version="1.0" encoding="utf-8"?>
<!-- Generator: Adobe Illustrator 23.0.5, SVG Export Plug-In . SVG Version: 6.00 Build 0)  -->
<svg version="1.1" id="Layer_1" xmlns="http://www.w3.org/2000/svg" xmlns:xlink="http://www.w3.org/1999/xlink" x="0px" y="0px"
	 viewBox="0 0 800 800" style="enable-background:new 0 0 800 800;" xml:space="preserve">
<style type="text/css">
	.st0{opacity:0.5;fill-rule:evenodd;clip-rule:evenodd;fill:#FFFFFF;enable-background:new    ;}
	.st1{fill-rule:evenodd;clip-rule:evenodd;fill:#FFFFFF;}
</style>
<path class="st0" d="M100,475c13.8,0,25,11.2,25,25c0,47.8,0.1,81.2,3.4,106.4c3.3,24.5,9.3,37.4,18.5,46.6
	c9.2,9.2,22.2,15.2,46.6,18.5c25.2,3.4,58.5,3.4,106.4,3.4h200c47.8,0,81.2-0.1,106.4-3.4c24.5-3.3,37.4-9.3,46.6-18.5
	c9.2-9.2,15.2-22.2,18.5-46.6c3.4-25.2,3.4-58.6,3.4-106.4c0-13.8,11.2-25,25-25c13.8,0,25,11.2,25,25v1.8c0,45.6,0,82.3-3.9,111.2
	c-4,30-12.7,55.3-32.7,75.3c-20.1,20.1-45.3,28.7-75.3,32.7c-28.9,3.9-65.6,3.9-111.2,3.9H298.2c-45.6,0-82.3,0-111.2-3.9
	c-30-4-55.3-12.7-75.3-32.7c-20.1-20.1-28.7-45.3-32.7-75.3C75,584.2,75,547.4,75,501.8c0-0.6,0-1.2,0-1.8
	C75,486.2,86.2,475,100,475z"/>
<path class="st1" d="M400,558.3c7,0,13.7-2.9,18.4-8.1l133.3-145.8c9.3-10.2,8.6-26-1.6-35.3c-10.2-9.3-26-8.6-35.3,1.6L425,468.9
	V100c0-13.8-11.2-25-25-25c-13.8,0-25,11.2-25,25v368.9l-89.9-98.3c-9.3-10.2-25.1-10.9-35.3-1.6c-10.2,9.3-10.9,25.1-1.6,35.3
	l133.3,145.8C386.3,555.4,393,558.3,400,558.3z"/>
</svg>
