<svg width="87" height="75" viewBox="0 0 87 75" fill="none" xmlns="http://www.w3.org/2000/svg">
<g opacity="0.13">
<ellipse rx="19.5966" ry="19.4006" transform="matrix(0.607242 -0.794517 0.766573 0.642157 26.7719 46.6311)" fill="#DCDCDC"/>
<ellipse rx="19.5966" ry="19.4006" transform="matrix(0.607242 -0.794517 0.766573 0.642157 60.2001 28.0281)" fill="#DCDCDC"/>
</g>
<path d="M24.8289 10.4536L16.9849 27.7013V30.8965H19.2563V55.8822H67.7134V30.8965H69.9849V27.7013L62.1409 10.4536H24.8289ZM25.8056 11.9679H61.1717L68.4706 28.0345V29.3822H66.1991C65.7827 29.3822 65.442 29.7229 65.442 30.1393C65.442 30.5558 65.7827 30.8965 66.1991 30.8965V54.3679H61.6563V36.1965H48.0277V54.3679H20.7706V30.8965C21.187 30.8965 21.5277 30.5558 21.5277 30.1393C21.5277 29.7229 21.187 29.3822 20.7706 29.3822H18.4991V28.0345L25.798 11.9679H25.8056ZM23.8067 29.3822C23.3903 29.3822 23.0496 29.7229 23.0496 30.1393C23.0496 30.5558 23.3903 30.8965 23.8067 30.8965C24.2231 30.8965 24.5639 30.5558 24.5639 30.1393C24.5639 29.7229 24.2231 29.3822 23.8067 29.3822ZM26.8353 29.3822C26.4189 29.3822 26.0781 29.7229 26.0781 30.1393C26.0781 30.5558 26.4189 30.8965 26.8353 30.8965C27.2517 30.8965 27.5924 30.5558 27.5924 30.1393C27.5924 29.7229 27.2517 29.3822 26.8353 29.3822ZM29.8639 29.3822C29.4474 29.3822 29.1067 29.7229 29.1067 30.1393C29.1067 30.5558 29.4474 30.8965 29.8639 30.8965C30.2803 30.8965 30.621 30.5558 30.621 30.1393C30.621 29.7229 30.2803 29.3822 29.8639 29.3822ZM32.8924 29.3822C32.476 29.3822 32.1353 29.7229 32.1353 30.1393C32.1353 30.5558 32.476 30.8965 32.8924 30.8965C33.3089 30.8965 33.6496 30.5558 33.6496 30.1393C33.6496 29.7229 33.3089 29.3822 32.8924 29.3822ZM35.921 29.3822C35.5046 29.3822 35.1639 29.7229 35.1639 30.1393C35.1639 30.5558 35.5046 30.8965 35.921 30.8965C36.3374 30.8965 36.6781 30.5558 36.6781 30.1393C36.6781 29.7229 36.3374 29.3822 35.921 29.3822ZM38.9496 29.3822C38.5331 29.3822 38.1924 29.7229 38.1924 30.1393C38.1924 30.5558 38.5331 30.8965 38.9496 30.8965C39.366 30.8965 39.7067 30.5558 39.7067 30.1393C39.7067 29.7229 39.366 29.3822 38.9496 29.3822ZM41.9781 29.3822C41.5617 29.3822 41.221 29.7229 41.221 30.1393C41.221 30.5558 41.5617 30.8965 41.9781 30.8965C42.3946 30.8965 42.7353 30.5558 42.7353 30.1393C42.7353 29.7229 42.3946 29.3822 41.9781 29.3822ZM45.0067 29.3822C44.5903 29.3822 44.2496 29.7229 44.2496 30.1393C44.2496 30.5558 44.5903 30.8965 45.0067 30.8965C45.4231 30.8965 45.7639 30.5558 45.7639 30.1393C45.7639 29.7229 45.4231 29.3822 45.0067 29.3822ZM48.0353 29.3822C47.6189 29.3822 47.2781 29.7229 47.2781 30.1393C47.2781 30.5558 47.6189 30.8965 48.0353 30.8965C48.4517 30.8965 48.7924 30.5558 48.7924 30.1393C48.7924 29.7229 48.4517 29.3822 48.0353 29.3822ZM51.0639 29.3822C50.6474 29.3822 50.3067 29.7229 50.3067 30.1393C50.3067 30.5558 50.6474 30.8965 51.0639 30.8965C51.4803 30.8965 51.821 30.5558 51.821 30.1393C51.821 29.7229 51.4803 29.3822 51.0639 29.3822ZM54.0924 29.3822C53.676 29.3822 53.3353 29.7229 53.3353 30.1393C53.3353 30.5558 53.676 30.8965 54.0924 30.8965C54.5089 30.8965 54.8496 30.5558 54.8496 30.1393C54.8496 29.7229 54.5089 29.3822 54.0924 29.3822ZM57.121 29.3822C56.7046 29.3822 56.3639 29.7229 56.3639 30.1393C56.3639 30.5558 56.7046 30.8965 57.121 30.8965C57.5374 30.8965 57.8781 30.5558 57.8781 30.1393C57.8781 29.7229 57.5374 29.3822 57.121 29.3822ZM60.1496 29.3822C59.7331 29.3822 59.3924 29.7229 59.3924 30.1393C59.3924 30.5558 59.7331 30.8965 60.1496 30.8965C60.566 30.8965 60.9067 30.5558 60.9067 30.1393C60.9067 29.7229 60.566 29.3822 60.1496 29.3822ZM63.1781 29.3822C62.7617 29.3822 62.421 29.7229 62.421 30.1393C62.421 30.5558 62.7617 30.8965 63.1781 30.8965C63.5946 30.8965 63.9353 30.5558 63.9353 30.1393C63.9353 29.7229 63.5946 29.3822 63.1781 29.3822ZM26.8277 36.1965V48.3108H41.9706V36.1965H26.8277ZM28.342 37.7108H40.4563V41.4965C40.0399 41.4965 39.6991 41.8372 39.6991 42.2536C39.6991 42.67 40.0399 43.0108 40.4563 43.0108V46.7965H28.342V43.0108C28.7584 43.0108 29.0991 42.67 29.0991 42.2536C29.0991 41.8372 28.7584 41.4965 28.342 41.4965V37.7108ZM49.542 37.7108H60.142V54.3679H49.542V37.7108ZM34.3991 38.4679C33.9827 38.4679 33.642 38.8086 33.642 39.225C33.642 39.6415 33.9827 39.9822 34.3991 39.9822C34.8156 39.9822 35.1563 39.6415 35.1563 39.225C35.1563 38.8086 34.8156 38.4679 34.3991 38.4679ZM31.3706 41.4965C30.9541 41.4965 30.6134 41.8372 30.6134 42.2536C30.6134 42.67 30.9541 43.0108 31.3706 43.0108C31.787 43.0108 32.1277 42.67 32.1277 42.2536C32.1277 41.8372 31.787 41.4965 31.3706 41.4965ZM34.3991 41.4965C33.9827 41.4965 33.642 41.8372 33.642 42.2536C33.642 42.67 33.9827 43.0108 34.3991 43.0108C34.8156 43.0108 35.1563 42.67 35.1563 42.2536C35.1563 41.8372 34.8156 41.4965 34.3991 41.4965ZM37.4277 41.4965C37.0113 41.4965 36.6706 41.8372 36.6706 42.2536C36.6706 42.67 37.0113 43.0108 37.4277 43.0108C37.8441 43.0108 38.1849 42.67 38.1849 42.2536C38.1849 41.8372 37.8441 41.4965 37.4277 41.4965ZM34.3991 44.525C33.9827 44.525 33.642 44.8658 33.642 45.2822C33.642 45.6986 33.9827 46.0393 34.3991 46.0393C34.8156 46.0393 35.1563 45.6986 35.1563 45.2822C35.1563 44.8658 34.8156 44.525 34.3991 44.525ZM57.8706 46.0393C57.4541 46.0393 57.1134 46.38 57.1134 46.7965C57.1134 47.2129 57.4541 47.5536 57.8706 47.5536C58.287 47.5536 58.6277 47.2129 58.6277 46.7965C58.6277 46.38 58.287 46.0393 57.8706 46.0393Z" fill="#EEEEEE"/>
</svg>
