<svg width="65" height="63" viewBox="0 0 65 63" fill="none" xmlns="http://www.w3.org/2000/svg">
<circle cx="19.5" cy="43.5" r="19.5" fill="#7558EA" fill-opacity="0.08"/>
<path d="M36.0698 60C34.4801 60 32.9376 59.453 31.7048 58.4544L29.1961 56.3975C28.4206 55.7593 27.4444 55.4118 26.4366 55.4132H21.9712C20.4202 55.4189 18.9135 54.899 17.6979 53.9417C16.4823 52.983 15.6322 51.6441 15.2853 50.1412L14.4955 46.7382C14.2518 45.6784 13.6095 44.7511 12.7021 44.1457L9.99278 42.3138C8.73559 41.4605 7.79951 40.217 7.33075 38.7768C6.86199 37.3367 6.89066 35.784 7.40816 34.361L8.66248 30.9337C9.01943 29.9722 9.01943 28.9167 8.66248 27.9552L7.5085 25.0264C6.96663 23.5706 6.9394 21.9752 7.42966 20.5009C7.91849 19.0266 8.89758 17.7617 10.2064 16.9127L13.1795 15.0053C14.0769 14.4284 14.7262 13.5395 14.9986 12.5125L15.9275 9.33451C16.3519 7.80036 17.3023 6.46278 18.6154 5.55255C19.9285 4.64231 21.5197 4.2164 23.1152 4.34887L25.9378 4.59815C27.0545 4.68505 28.1626 4.34602 29.0356 3.65088L31.7077 1.50706C32.9419 0.518479 34.4844 -0.0142714 36.0713 -2.67578e-05C37.6582 0.0127935 39.1906 0.572609 40.4105 1.58113L42.7429 3.51271C43.6159 4.23349 44.734 4.59103 45.8665 4.50984L48.8023 4.2862C50.3304 4.17224 51.8528 4.56966 53.1272 5.41437C54.4016 6.25908 55.3563 7.50264 55.8394 8.94848L57.0938 12.6877C57.4005 13.5979 57.9997 14.3814 58.7996 14.9184L61.9734 17.038C63.2665 17.9155 64.2198 19.2061 64.6756 20.6946C65.1315 22.1832 65.0627 23.7829 64.4821 25.2273L63.2278 28.2557C62.802 29.2942 62.802 30.4579 63.2278 31.4964L64.4821 34.4507C65.0727 35.8681 65.1616 37.4435 64.733 38.9179C64.3043 40.3922 63.384 41.6785 62.124 42.5645L59.3014 44.5716C58.5043 45.1414 57.9252 45.9633 57.6586 46.902L56.6422 50.4546C56.2036 51.9731 55.2503 53.2936 53.9415 54.191C52.6341 55.0884 51.0529 55.5072 49.4689 55.3776L46.4213 55.1155C45.3045 55.0243 44.195 55.3633 43.3234 56.0627L40.3876 58.4302C39.172 59.4273 37.6496 59.9815 36.0727 60H36.0698ZM22.4859 6.84027C21.5397 6.84312 20.6194 7.15223 19.8654 7.72201C19.1114 8.2918 18.5652 9.08808 18.3086 9.99404L17.4184 13.1478C16.9697 14.7518 15.9433 16.1363 14.5342 17.0366L11.5739 18.944C10.7454 19.4838 10.1247 20.2858 9.81216 21.2203C9.49965 22.1547 9.51542 23.1661 9.85517 24.092L10.9848 27.0834C11.5567 28.6019 11.5567 30.2756 10.9848 31.7941L9.73045 35.21C9.41651 36.1045 9.40791 37.0774 9.70465 37.9791C10.0014 38.8794 10.5877 39.6586 11.3747 40.1956L14.084 42.0146C15.5448 42.999 16.5683 44.5018 16.9439 46.2154L17.7338 49.6056C17.9502 50.56 18.4892 51.4133 19.2605 52.023C20.0317 52.6326 20.9878 52.9631 21.9741 52.9588H26.4395C28.0321 52.9588 29.576 53.5087 30.8045 54.5172L33.3132 56.5613C34.0887 57.1909 35.0592 57.5356 36.0598 57.5356C37.0604 57.5356 38.0309 57.1924 38.8064 56.5613L41.7423 54.2052C43.1127 53.0984 44.8616 52.5614 46.6219 52.7096L49.6825 52.9717C50.686 53.0486 51.6851 52.7793 52.5123 52.2096C53.3394 51.6398 53.9429 50.8036 54.2224 49.8435L55.2388 46.3037C55.6588 44.8009 56.5777 43.4818 57.8478 42.5645L60.6704 40.5702C61.466 40.0047 62.048 39.1885 62.3189 38.2541C62.5899 37.3196 62.5354 36.321 62.1627 35.4222L60.9083 32.4565C60.2375 30.8226 60.2375 28.9922 60.9083 27.3583L62.1627 24.3171C62.5325 23.4011 62.5755 22.3855 62.2831 21.4425C61.9907 20.4995 61.3814 19.6833 60.5571 19.132L57.3217 17.0509C56.0559 16.2061 55.1112 14.964 54.6367 13.5239L53.3824 9.78464C53.0756 8.86871 52.4692 8.08098 51.6607 7.54538C50.8522 7.00978 49.8861 6.75907 48.917 6.8303L46.0328 7.0169C44.2509 7.15935 42.4848 6.59953 41.1158 5.45853L38.7835 3.51414C38.0037 2.88167 37.0303 2.53695 36.024 2.53695C35.0176 2.53695 34.0429 2.88167 33.2645 3.51414L30.5924 5.65796C29.2162 6.76335 27.463 7.2961 25.7012 7.14083L22.8786 6.89155L22.4887 6.84169L22.4859 6.84027Z" fill="#7558EA"/>
<path d="M29.0215 26.0977C27.4303 26.1005 25.9036 25.4766 24.7768 24.3613C23.6501 23.2445 23.015 21.7303 23.0136 20.1491C23.0107 18.568 23.6415 17.0509 24.7654 15.9327C25.8892 14.8145 27.4145 14.1849 29.0057 14.1834C30.5969 14.182 32.1222 14.8088 33.2475 15.927C34.3728 17.0452 35.0049 18.5608 35.0049 20.142C35.0049 21.7232 34.3756 23.2331 33.2532 24.3499C32.1322 25.4667 30.6098 26.0963 29.0215 26.0991V26.0977ZM29.0215 16.6877C28.0954 16.6848 27.2052 17.0481 26.5486 17.6976C25.8921 18.3472 25.5222 19.2289 25.5222 20.1491C25.5222 21.0693 25.8878 21.9525 26.5429 22.6035C27.198 23.2545 28.0868 23.6191 29.0129 23.6177C29.9389 23.6177 30.8263 23.2488 31.4799 22.5964C32.1336 21.9439 32.4992 21.0594 32.4949 20.1391C32.492 19.2246 32.125 18.3486 31.4742 17.7019C30.8234 17.0552 29.9403 16.6905 29.0215 16.6877Z" fill="#7558EA"/>
<path d="M43.4469 45.8294C41.8543 45.8323 40.3276 45.2069 39.2008 44.0901C38.0741 42.9734 37.4391 41.4577 37.4391 39.8751C37.4391 38.294 38.0698 36.7769 39.1951 35.6573C40.3204 34.5391 41.8471 33.9109 43.4397 33.9123C45.0309 33.9123 46.5576 34.5434 47.6815 35.663C48.8054 36.7826 49.4347 38.3011 49.4318 39.8823C49.429 41.4577 48.7968 42.9677 47.6758 44.083C46.5548 45.197 45.0353 45.8251 43.4498 45.828L43.4469 45.8294ZM43.4469 36.4194C42.5209 36.4165 41.6321 36.7784 40.9755 37.4265C40.319 38.0746 39.9491 38.9564 39.9463 39.8766C39.9434 40.7968 40.3104 41.6785 40.9626 42.3309C41.6149 42.9833 42.5037 43.3494 43.4283 43.3508C44.3529 43.3523 45.2417 42.9876 45.8968 42.3381C46.5519 41.6885 46.9189 40.8067 46.9189 39.8865C46.9189 38.9663 46.5533 38.0903 45.9025 37.4407C45.2517 36.7912 44.3672 36.4251 43.4455 36.4222L43.4469 36.4194Z" fill="#7558EA"/>
<path d="M22.3728 41.6728L47.2959 16.907L49.0706 18.6705L24.1475 43.4363L22.3728 41.6728Z" fill="#7558EA"/>
</svg>
