<svg width="55" height="62" viewBox="0 0 55 62" fill="none" xmlns="http://www.w3.org/2000/svg">
<path d="M17.0408 16H48.9592C50.6179 16 52.1272 16.6805 53.2223 17.7769C54.3208 18.8724 55 20.3873 55 22.0518V55.9482C55 57.6127 54.32 59.1276 53.2266 60.2231L53.1533 60.2906C52.0642 61.3472 50.5833 62 48.9592 62H17.0408C15.3821 62 13.8728 61.3195 12.7777 60.2231C11.6792 59.1276 11 57.6127 11 55.9482V22.0518C11 20.3873 11.68 18.8724 12.7734 17.7769L12.8467 17.7094C13.9358 16.6528 15.4167 16 17.0408 16ZM39.3139 26.7183C40.5609 26.7183 41.6914 27.2259 42.5094 28.0447C43.3275 28.8644 43.8332 29.9963 43.8332 31.2466C43.8332 32.4969 43.3258 33.6244 42.5069 34.445C41.6914 35.2664 40.5609 35.7739 39.3139 35.7739C38.0669 35.7739 36.9364 35.2664 36.1183 34.4476L36.0484 34.3715C35.2718 33.557 34.7937 32.4554 34.7937 31.2466C34.7937 30.0378 35.3002 28.8644 36.1175 28.0447C36.9356 27.225 38.0652 26.7183 39.313 26.7183H39.3139ZM40.8016 29.7559C40.4211 29.3746 39.8955 29.1394 39.3139 29.1394C38.7322 29.1394 38.2067 29.3755 37.8261 29.7559C37.4456 30.1372 37.2108 30.6638 37.2108 31.2466C37.2108 31.8294 37.4257 32.3144 37.7752 32.688L37.8261 32.7364C38.2067 33.1177 38.7322 33.3529 39.3139 33.3529C39.8955 33.3529 40.4211 33.1168 40.8016 32.7364C41.1831 32.3585 41.4169 31.832 41.4169 31.2466C41.4169 30.6612 41.1813 30.1372 40.8016 29.7559ZM34.5106 45.0725L40.2657 38.7605C40.7136 38.2694 41.4747 38.2356 41.964 38.6844L52.5828 50.3227V22.0509C52.5828 21.0531 52.1747 20.1443 51.5179 19.4872C50.8629 18.8283 49.956 18.4202 48.9584 18.4202H17.0408C16.0699 18.4202 15.1845 18.8067 14.5321 19.4327L14.4812 19.4872C13.8245 20.1452 13.4163 21.0539 13.4163 22.0509V50.6894L25.6368 37.2888C26.0846 36.7977 26.8458 36.764 27.3351 37.2127L34.5089 45.0717L34.5106 45.0725ZM52.5837 53.8947L41.1529 41.3605L36.139 46.858L41.6517 52.9029C42.0995 53.394 42.0659 54.1558 41.5757 54.6045C41.0856 55.0533 40.3253 55.0196 39.8774 54.5285L26.5247 39.888L13.4172 54.2621V55.9482C13.4172 56.9461 13.8253 57.8548 14.4821 58.512C15.1371 59.1708 16.044 59.5789 17.0416 59.5789H48.9592C49.9301 59.5789 50.8155 59.1924 51.4679 58.5664L51.5188 58.512C52.1755 57.8539 52.5837 56.9452 52.5837 55.9482V53.8947Z" fill="#43B0FF"/>
<circle cx="19.5" cy="19.5" r="19.5" fill="#43B0FF" fill-opacity="0.08"/>
</svg>
