<svg width="62" height="56" viewBox="0 0 62 56" fill="none" xmlns="http://www.w3.org/2000/svg">
<path d="M29.2435 55.9983C28.4726 55.9983 27.8509 55.3767 27.8509 54.6058C27.8509 53.8349 28.4726 53.2132 29.2435 53.2132C40.2529 53.2132 49.2132 44.2545 49.2132 33.2435C49.2132 22.2324 40.2545 13.2737 29.2435 13.2737C18.2324 13.2737 9.27369 22.2341 9.27369 33.2451C9.27369 34.016 8.65202 34.6377 7.88115 34.6377C7.11028 34.6377 6.4886 34.016 6.4886 33.2451C6.4886 20.7023 16.7006 10.4903 29.2435 10.4903C41.7863 10.4903 51.9983 20.7023 51.9983 33.2451C51.9983 45.788 41.7847 56 29.2435 56V55.9983Z" fill="#43B0FF"/>
<path d="M20.7224 6.78509C19.9515 6.78509 19.3299 6.16342 19.3299 5.39255C19.3299 4.62167 19.9532 4 20.7224 4H37.7678C38.5387 4 39.1604 4.62167 39.1604 5.39255C39.1604 6.16342 38.5387 6.78509 37.7678 6.78509H20.7224Z" fill="#43B0FF"/>
<path d="M24.4541 13.8407C23.6832 13.8407 23.0616 13.219 23.0616 12.4481V5.39255C23.0616 4.62167 23.6832 4 24.4541 4C25.225 4 25.8467 4.62167 25.8467 5.39255V12.4481C25.8467 13.209 25.225 13.8407 24.4558 13.8407H24.4541Z" fill="#43B0FF"/>
<path d="M34.0328 13.771C33.262 13.771 32.6403 13.1494 32.6403 12.3785V5.39255C32.6403 4.62167 33.262 4 34.0328 4C34.8037 4 35.4254 4.62167 35.4254 5.39255V12.3785C35.4254 13.1494 34.8037 13.771 34.0328 13.771Z" fill="#43B0FF"/>
<path d="M29.2435 34.636C28.4726 34.636 27.8509 34.0143 27.8509 33.2435V18.204C27.8509 17.4331 28.4726 16.8114 29.2435 16.8114C30.0143 16.8114 30.636 17.4331 30.636 18.204V33.2435C30.636 34.0143 30.0143 34.636 29.2435 34.636Z" fill="#43B0FF"/>
<path d="M37.1528 34.636L29.2435 34.636C28.4726 34.636 27.8509 34.0143 27.8509 33.2435C27.8509 32.4726 28.4726 31.8509 29.2435 31.8509H37.1528C37.9237 31.8509 38.5453 32.4726 38.5453 33.2435C38.5453 34.0143 37.9237 34.636 37.1528 34.636Z" fill="#43B0FF"/>
<path d="M29.2435 55.9983H1.39255C0.62333 55.9983 0 55.3767 0 54.6058C0 53.8349 0.621672 53.2132 1.39255 53.2132H29.2435C30.0143 53.2132 30.636 53.8349 30.636 54.6058C30.636 55.3767 30.0143 55.9983 29.2435 55.9983Z" fill="#43B0FF"/>
<path d="M24.7873 48.4504H1.39255C0.62333 48.4504 0 47.8287 0 47.0579C0 46.287 0.621672 45.6653 1.39255 45.6653H24.7873C25.5582 45.6653 26.1799 46.287 26.1799 47.0579C26.1799 47.8287 25.5582 48.4504 24.7873 48.4504Z" fill="#43B0FF"/>
<path d="M20.3312 40.9025H1.39255C0.62333 40.9025 0 40.2808 0 39.5099C0 38.7391 0.621672 38.1174 1.39255 38.1174H20.3312C21.1021 38.1174 21.7237 38.7391 21.7237 39.5099C21.7237 40.2808 21.1021 40.9025 20.3312 40.9025Z" fill="#43B0FF"/>
<path d="M9.52402 13.8407H1.39255C0.621672 13.8407 0 13.219 0 12.4481C0 11.6772 0.621672 11.0556 1.39255 11.0556H9.52402C10.2949 11.0556 10.9166 11.6772 10.9166 12.4481C10.9166 13.2173 10.2949 13.8407 9.52402 13.8407Z" fill="#43B0FF"/>
<circle cx="42.5" cy="19.5" r="19.5" fill="#43B0FF" fill-opacity="0.08"/>
</svg>
