<svg width="67" height="68" viewBox="0 0 67 68" fill="none" xmlns="http://www.w3.org/2000/svg">
<path d="M22.3686 17.1714C22.3686 16.6218 22.8062 16.1767 23.3467 16.1767H23.8006C24.3411 16.1767 24.7787 16.6218 24.7787 17.1714C24.7787 17.721 24.3411 18.1661 23.8006 18.1661H23.3467C22.8062 18.1661 22.3686 17.721 22.3686 17.1714ZM58.0206 16.1767H27.5074C26.967 16.1767 26.5293 16.6218 26.5293 17.1714C26.5293 17.721 26.967 18.1661 27.5074 18.1661H48.5104V62.8785C48.5104 63.4282 48.9481 63.8732 49.4885 63.8732C50.029 63.8732 50.4666 63.4282 50.4666 62.8785V18.1661H58.0194C58.5599 18.1661 58.9975 17.721 58.9975 17.1714C58.9975 16.6218 58.5586 16.1767 58.0181 16.1767H58.0206ZM20.4889 48.2962V32.7523L29.5 26.8887L42.7672 35.5221C42.9302 35.6292 43.1133 35.679 43.2938 35.679C43.6161 35.679 43.9321 35.517 44.119 35.2199C44.4099 34.757 44.2782 34.141 43.823 33.8452L30.0279 24.8675C29.7057 24.6583 29.2956 24.6583 28.9733 24.8675L18.9653 31.3801L15.1795 33.8439C14.7243 34.1397 14.5914 34.7557 14.8836 35.2186C15.1745 35.6802 15.7789 35.818 16.2353 35.5196L18.5352 34.0237V49.2883C18.5352 49.8379 18.9728 50.283 19.5133 50.283H39.4918C40.0322 50.283 40.4699 49.8379 40.4699 49.2883V37.4974C40.4699 36.9478 40.0322 36.5028 39.4918 36.5028C38.9513 36.5028 38.5136 36.9478 38.5136 37.4974V48.2936H34.5322V41.0515C34.5322 40.5019 34.0946 40.0569 33.5541 40.0569H25.4546C24.9142 40.0569 24.4765 40.5019 24.4765 41.0515V45.4588C24.4765 46.0084 24.9142 46.4535 25.4546 46.4535C25.9951 46.4535 26.4328 46.0084 26.4328 45.4588V42.0462H32.576V48.2936H20.4939L20.4889 48.2962ZM45.6237 56.8326H10.4883V18.1661H19.5108C20.0512 18.1661 20.4889 17.721 20.4889 17.1714C20.4889 16.6218 20.0512 16.1767 19.5108 16.1767H10.4883V8.49469C10.4883 7.94506 10.0507 7.5 9.51022 7.5C8.96976 7.5 8.53211 7.94506 8.53211 8.49469V56.8326H0.978108C0.437641 56.8326 0 57.2777 0 57.8273C0 58.3769 0.437641 58.822 0.978108 58.822H45.625C46.1655 58.822 46.6031 58.3769 46.6031 57.8273C46.6031 57.2777 46.1642 56.8326 45.6237 56.8326ZM49.4885 65.1179C48.9481 65.1179 48.5104 65.5629 48.5104 66.1125V66.504C48.5104 67.0537 48.9481 67.4987 49.4885 67.4987C50.029 67.4987 50.4666 67.0537 50.4666 66.504V66.1125C50.4666 65.5629 50.0277 65.1179 49.4885 65.1179Z" fill="#7558EA"/>
<circle cx="47.5" cy="19.5" r="19.5" fill="#7558EA" fill-opacity="0.08"/>
</svg>
