<svg width="16" height="16" viewBox="0 0 16 16" fill="none" xmlns="http://www.w3.org/2000/svg">
<g clip-path="url(#clip0_285_2447)">
<path fill-rule="evenodd" clip-rule="evenodd" d="M2.92686 0H13.0731C13.8797 0 14.6114 0.329714 15.1394 0.858C15.6703 1.38886 16 2.12057 16 2.92686V13.0731C16 13.8797 15.6703 14.6114 15.1394 15.1394C14.6086 15.6703 13.8769 16 13.0731 16H2.92686C2.12029 16 1.38857 15.6703 0.858 15.1394C0.329714 14.6114 0 13.8794 0 13.0731V2.92686C0 2.12286 0.329714 1.39114 0.858 0.860571V0.858C1.38886 0.33 2.12057 0 2.92686 0ZM13.0731 1.24943H2.92686C2.46571 1.24943 2.04571 1.43743 1.74171 1.74143C1.43771 2.04543 1.24971 2.46543 1.24971 2.92657V13.0731C1.24971 13.5343 1.43771 13.9543 1.74171 14.2583C2.04571 14.5623 2.46571 14.7503 2.92686 14.7503H13.0731C13.5343 14.7503 13.9543 14.5623 14.2583 14.2583C14.5623 13.9543 14.7503 13.5343 14.7503 13.0731V2.92686C14.7503 2.46571 14.5623 2.04571 14.2583 1.74171C13.9543 1.43771 13.5343 1.24971 13.0731 1.24971V1.24943ZM4.45486 4.99571C4.10971 4.99571 3.82886 4.71486 3.82886 4.36971C3.82886 4.02457 4.10971 3.74629 4.45486 3.74629H11.5454C11.8906 3.74629 12.1714 4.02714 12.1714 4.36971C12.1714 4.71229 11.8906 4.99571 11.5454 4.99571H4.45486ZM4.45486 8.62343C4.10971 8.62343 3.82886 8.34514 3.82886 8C3.82886 7.65486 4.10971 7.37657 4.45486 7.37657H8C8.34514 7.37657 8.62343 7.65486 8.62343 8C8.62343 8.34514 8.34514 8.62343 8 8.62343H4.45486ZM4.45486 12.2537C4.10971 12.2537 3.82886 11.9729 3.82886 11.6277C3.82886 11.2826 4.10971 11.0043 4.45486 11.0043H11.5454C11.8906 11.0043 12.1714 11.2851 12.1714 11.6277C12.1714 11.9703 11.8906 12.2537 11.5454 12.2537H4.45486Z" fill="white"/>
</g>
<defs>
<clipPath id="clip0_285_2447">
<rect width="16" height="16" fill="white"/>
</clipPath>
</defs>
</svg>
