<svg width="85" height="17" viewBox="0 0 85 17" fill="none" xmlns="http://www.w3.org/2000/svg">
<g clip-path="url(#clip0_46_518)">
<path d="M80.1677 0.172975C80.0229 0.395178 80.4085 1.54177 80.7947 2.89707C81.2173 4.22615 81.6221 5.71182 81.8433 6.62416C80.9692 6.26174 80.0952 5.93844 79.2213 5.6282C78.3474 5.3049 77.4735 5.0077 76.5815 4.73664C64.3845 0.836518 52.1609 -0.0243761 41.9611 0.764782C31.6886 1.55417 23.4216 3.90237 17.2643 6.30903C11.0889 8.74184 6.93234 11.2465 4.37388 13.0416C1.79732 14.8629 0.764326 15.9879 0.91027 16.131C1.23836 16.3647 1.72913 16.2849 4.01626 14.9471C5.1781 14.3043 6.77535 13.3339 9.20826 12.087C11.623 10.8401 14.8552 9.30371 19.342 7.71109C30.513 3.57968 42.7295 2.19711 52.7879 2.68667C62.9188 3.13687 70.8542 5.13322 75.4598 6.56632C78.5728 7.56071 79.5561 7.94887 80.43 8.27216C78.1407 8.93166 74.2181 10.666 73.7655 11.2935C76.8925 10.9965 81.6348 9.67701 84.9062 9.02741C84.851 8.84498 84.5733 7.30673 83.8036 5.45701C83.0521 3.62028 81.754 1.47225 80.1859 0.18596L80.1677 0.172975Z" fill="#6E6E71"/>
</g>
<defs>
<clipPath id="clip0_46_518">
<rect width="84" height="15.8087" fill="white" transform="translate(0.860352 0.427734) rotate(-0.183314)"/>
</clipPath>
</defs>
</svg>
