<svg width="73" height="56" viewBox="0 0 73 56" fill="none" xmlns="http://www.w3.org/2000/svg">
<g opacity="0.13">
<ellipse rx="19.0469" ry="19.9406" transform="matrix(1 0 0 -1 19.0469 35.6429)" fill="white"/>
<ellipse rx="19.0469" ry="19.9406" transform="matrix(1 0 0 -1 53.8066 19.9403)" fill="white"/>
</g>
<path fill-rule="evenodd" clip-rule="evenodd" d="M26.7807 3.20439C26.4974 2.18334 26.1282 1.41397 25.7368 0.989189C25.3896 0.612842 25.003 0.445312 24.6203 0.445312C24.2377 0.445312 23.8511 0.612842 23.5039 0.989189C23.1125 1.41317 22.7433 2.18254 22.46 3.20439C21.5416 2.68354 20.7408 2.40247 20.1656 2.38104C19.6559 2.36198 19.2645 2.51919 18.9939 2.79073C18.7233 3.06307 18.5678 3.45609 18.5868 3.96979C18.6081 4.5486 18.8874 5.35449 19.405 6.27869C18.3903 6.56372 17.6257 6.93531 17.2044 7.32912C16.8304 7.67847 16.6639 8.06752 16.6639 8.4526C16.6639 8.83768 16.8304 9.22594 17.2044 9.57529C17.6257 9.96911 18.3903 10.3407 19.4058 10.6257C18.8882 11.5499 18.6089 12.3558 18.5875 12.9346C18.5686 13.4483 18.724 13.8413 18.9947 14.1137C19.2653 14.386 19.6559 14.5424 20.1664 14.5234C20.7416 14.5019 21.5424 14.2201 22.4608 13.7C22.7441 14.7211 23.1133 15.4904 23.5047 15.9152C23.8518 16.2916 24.2385 16.4591 24.6211 16.4591C25.0038 16.4591 25.3904 16.2916 25.7376 15.9152C26.1289 15.4912 26.4982 14.7219 26.7815 13.7008C27.6991 14.2209 28.5007 14.5027 29.0759 14.5242C29.5856 14.5432 29.977 14.386 30.2476 14.1145C30.5182 13.8421 30.6737 13.4491 30.6547 12.9354C30.6334 12.3566 30.3533 11.5507 29.8365 10.6265C30.8512 10.3415 31.6157 9.9699 32.0371 9.57609C32.4111 9.22673 32.5776 8.83768 32.5776 8.4526C32.5776 8.06752 32.4111 7.67847 32.0371 7.32912C31.6157 6.93531 30.8512 6.56372 29.8365 6.27869C30.3533 5.35449 30.6334 4.5486 30.6547 3.96979C30.6737 3.45609 30.5174 3.06307 30.2476 2.79073C29.977 2.51839 29.5864 2.36198 29.0759 2.38104C28.5007 2.40247 27.6983 2.68434 26.7807 3.20439ZM24.6203 1.84669C24.6472 1.86654 24.6953 1.90306 24.7253 1.93482C24.8184 2.03645 24.906 2.17063 24.9904 2.33102C25.2579 2.83599 25.4804 3.56089 25.6524 4.43506C25.6974 4.66294 25.852 4.85349 26.065 4.94242C26.2781 5.03134 26.5219 5.00673 26.7136 4.87731C27.449 4.38187 28.1157 4.02775 28.6601 3.86022C28.8329 3.80782 28.9883 3.77368 29.1256 3.76891C29.169 3.76733 29.229 3.77606 29.2621 3.78082C29.2676 3.81338 29.2763 3.87451 29.274 3.91818C29.2692 4.05713 29.2361 4.21354 29.1832 4.38742C29.0175 4.93448 28.6656 5.60618 28.1725 6.34538C28.0439 6.53832 28.0202 6.78366 28.1078 6.99803C28.1962 7.2132 28.3855 7.36882 28.612 7.41408C29.4807 7.58716 30.201 7.81107 30.7029 8.07943C30.8622 8.16518 30.9956 8.25252 31.0966 8.347C31.1281 8.37718 31.1652 8.42481 31.1842 8.4526C31.1644 8.4796 31.1281 8.52803 31.0966 8.55741C30.9956 8.65189 30.8614 8.73923 30.7029 8.82498C30.201 9.09335 29.4807 9.31804 28.612 9.49034C28.3855 9.53559 28.1962 9.69121 28.1078 9.90638C28.0202 10.1208 28.0439 10.3661 28.1725 10.559C28.6656 11.299 29.0175 11.9699 29.1832 12.517C29.2353 12.6909 29.2692 12.8473 29.274 12.9862C29.2755 13.0299 29.2676 13.0902 29.2621 13.1236C29.2298 13.1284 29.169 13.1371 29.1256 13.1355C28.9883 13.1307 28.8329 13.0974 28.6601 13.0442C28.1165 12.8767 27.449 12.5225 26.7136 12.0271C26.5219 11.8977 26.2781 11.8731 26.065 11.962C25.852 12.0509 25.6966 12.2415 25.6524 12.4693C25.4804 13.3435 25.2579 14.0684 24.9904 14.5734C24.906 14.7338 24.8184 14.868 24.7253 14.9696C24.6953 15.0014 24.6472 15.0387 24.6203 15.0577C24.5935 15.0379 24.5446 15.0014 24.5154 14.9696C24.4223 14.868 24.3347 14.7338 24.2503 14.5734C23.9828 14.0684 23.7603 13.3435 23.5883 12.4693C23.5433 12.2415 23.3887 12.0509 23.1757 11.962C22.9618 11.8731 22.7188 11.8977 22.5271 12.0271C21.7917 12.5225 21.125 12.8767 20.5806 13.0442C20.4078 13.0966 20.2524 13.1307 20.1151 13.1355C20.0717 13.1371 20.0117 13.1284 19.9786 13.1236C19.9731 13.091 19.9644 13.0299 19.9667 12.9862C19.9715 12.8473 20.0046 12.6909 20.0575 12.517C20.2232 11.9699 20.5751 11.2982 21.0682 10.559C21.1968 10.3661 21.2205 10.1208 21.1321 9.90638C21.0437 9.69121 20.8544 9.53559 20.6279 9.49034C19.76 9.31725 19.0389 9.09335 18.5371 8.82498C18.3777 8.73923 18.2443 8.65189 18.1433 8.55741C18.1118 8.52724 18.0747 8.4796 18.0558 8.4526C18.0755 8.42561 18.1118 8.37638 18.1433 8.347C18.2443 8.25331 18.3777 8.16518 18.5371 8.07943C19.0389 7.81107 19.7592 7.58637 20.6279 7.41408C20.8544 7.36882 21.0437 7.2132 21.1321 6.99803C21.2205 6.78366 21.1968 6.53832 21.0682 6.34538C20.5751 5.60539 20.2232 4.93448 20.0575 4.38742C20.0046 4.21354 19.9715 4.05713 19.9667 3.91818C19.9652 3.87451 19.9731 3.81417 19.9786 3.78082C20.0109 3.77606 20.0717 3.76733 20.1151 3.76891C20.2524 3.77368 20.4078 3.80702 20.5806 3.86022C21.1242 4.02775 21.7917 4.38187 22.5271 4.87731C22.7188 5.00673 22.9618 5.03134 23.1757 4.94242C23.3887 4.85349 23.5441 4.66294 23.5883 4.43506C23.7603 3.56089 23.9828 2.83599 24.2503 2.33102C24.3347 2.17063 24.4223 2.03645 24.5154 1.93482C24.5454 1.90306 24.5935 1.86574 24.6203 1.84669Z" fill="white"/>
<path fill-rule="evenodd" clip-rule="evenodd" d="M22.3637 8.45266C22.3637 9.70556 23.3752 10.7234 24.6203 10.7234C25.8654 10.7234 26.8769 9.70556 26.8769 8.45266C26.8769 7.19976 25.8654 6.18108 24.6203 6.18108C24.2392 6.18108 23.9299 6.49311 23.9299 6.87581C23.9299 7.25851 24.2392 7.57055 24.6203 7.57055C25.1032 7.57055 25.4961 7.96595 25.4961 8.45186C25.4961 8.93778 25.1032 9.33318 24.6203 9.33318C24.1374 9.33318 23.7445 8.93778 23.7445 8.45186C23.7445 8.06837 23.4352 7.75713 23.0541 7.75713C22.673 7.75713 22.3637 8.06916 22.3637 8.45266Z" fill="white"/>
<path fill-rule="evenodd" clip-rule="evenodd" d="M33.0754 28.218C32.2958 22.2624 30.2941 16.8919 26.8871 12.1955C26.6623 11.8858 26.2307 11.8183 25.923 12.0446C25.6152 12.2709 25.5474 12.7052 25.7723 13.0157C29.0435 17.5239 30.9584 22.6824 31.7072 28.4006C31.7569 28.7809 32.1041 29.0485 32.482 28.9985C32.86 28.9485 33.1259 28.5991 33.0762 28.2188L33.0754 28.218Z" fill="white"/>
<path fill-rule="evenodd" clip-rule="evenodd" d="M28.3839 19.6168C27.6761 19.2873 26.8848 19.0269 26.0374 18.9205C24.0632 18.6736 22.2035 19.3222 21.0516 19.878C21.0484 19.8796 21.0453 19.8812 21.0421 19.8828C20.5655 20.1218 20.2405 20.5847 20.1742 21.1158C20.1079 21.647 20.3115 22.1758 20.7147 22.5252C20.7178 22.5283 20.7202 22.5299 20.7234 22.5323C21.7049 23.3549 23.35 24.4434 25.3241 24.6903C28.5661 25.0969 31.566 23.0714 31.566 23.0714C31.8824 22.857 31.9652 22.4251 31.7522 22.1075C31.5392 21.7899 31.1099 21.7058 30.7943 21.9202C30.7943 21.9202 28.2498 23.6574 25.4953 23.312C23.8265 23.1032 22.4458 22.1663 21.6134 21.47C21.5621 21.4247 21.5368 21.3564 21.5455 21.2873C21.5542 21.2214 21.5921 21.1635 21.6497 21.1309C22.632 20.6577 24.1997 20.09 25.8677 20.2988C26.5668 20.387 27.2193 20.6045 27.804 20.8769C28.1495 21.038 28.5606 20.8864 28.7208 20.5386C28.881 20.1909 28.7303 19.7772 28.3847 19.616L28.3839 19.6168Z" fill="white"/>
<path fill-rule="evenodd" clip-rule="evenodd" d="M33.8218 22.757C34.5264 22.5188 35.2704 22.1504 35.9332 21.5922C37.0039 20.6895 37.6264 19.4628 37.9665 18.5124C37.9665 18.5116 37.9665 18.5108 37.9673 18.51C38.155 17.978 38.0493 17.3857 37.6895 16.953C37.3297 16.5203 36.7687 16.3115 36.2156 16.4044C36.2149 16.4044 36.2141 16.4044 36.2125 16.4044C35.2231 16.5751 33.9141 16.976 32.8426 17.8788C30.8338 19.5723 30.4937 22.4164 30.4937 22.4164C30.4487 22.7975 30.7209 23.1429 31.0989 23.1873C31.4776 23.2326 31.8208 22.9595 31.865 22.5784C31.865 22.5784 32.123 20.298 33.7295 18.9443C34.5895 18.2186 35.6476 17.9121 36.4429 17.7748C36.5131 17.7637 36.5849 17.7899 36.6315 17.8454C36.6772 17.901 36.6906 17.9764 36.667 18.0447C36.3932 18.8085 35.9071 19.8034 35.0463 20.5275C34.524 20.9674 33.9346 21.2532 33.3807 21.4406C33.0193 21.5629 32.8252 21.9567 32.9468 22.3203C33.0683 22.684 33.4612 22.8793 33.8218 22.757Z" fill="white"/>
<path fill-rule="evenodd" clip-rule="evenodd" d="M41.0633 14.9974C41.0633 14.9974 41.0633 14.999 41.0641 14.9998C41.4034 15.9486 42.0244 17.1706 43.0919 18.0693C45.092 19.755 47.8599 19.6652 47.8599 19.6652C48.0532 19.6589 48.2339 19.5716 48.3601 19.4239C48.4864 19.2762 48.5448 19.0833 48.5219 18.8903C48.5219 18.8903 48.1834 16.0518 46.1777 14.3623C45.1102 13.4619 43.806 13.0617 42.8189 12.8918C42.8181 12.8918 42.8173 12.8918 42.8157 12.8918C42.2619 12.7989 41.7009 13.0069 41.3403 13.4404C40.9797 13.8732 40.8748 14.4655 41.0626 14.9982L41.0633 14.9974ZM42.3636 14.5298C42.34 14.4615 42.3534 14.3861 42.3991 14.3305C42.4449 14.2749 42.5167 14.2487 42.5877 14.2598C43.3815 14.3972 44.434 14.7037 45.2917 15.4262C46.2779 16.2575 46.7545 17.4389 46.9754 18.225C46.1801 18.1241 44.9634 17.8335 43.9788 17.0038C43.1219 16.2821 42.6374 15.292 42.3636 14.5298Z" fill="white"/>
<path fill-rule="evenodd" clip-rule="evenodd" d="M48.1037 19.6652C48.1037 19.6652 50.8708 19.7558 52.8717 18.0693C53.9393 17.1698 54.5602 15.9486 54.8995 14.9998C54.8995 14.999 54.9003 14.9982 54.9003 14.9974C55.0889 14.4655 54.9831 13.8732 54.6226 13.4396C54.262 13.0061 53.701 12.7973 53.1471 12.891C53.1463 12.891 53.1455 12.891 53.1439 12.891C52.3967 13.0196 51.4649 13.2793 50.5946 13.7914C50.2656 13.9843 50.1544 14.4099 50.3461 14.741C50.5386 15.0721 50.9615 15.184 51.2905 14.9911C52.0014 14.5742 52.7636 14.367 53.3751 14.2606C53.4453 14.2495 53.5171 14.2757 53.5637 14.3313C53.6095 14.3869 53.6229 14.4623 53.5992 14.5306C53.3262 15.2928 52.8417 16.2821 51.9841 17.0046C50.3769 18.3591 48.1503 18.2766 48.1503 18.2766C47.7692 18.2639 47.4496 18.564 47.4362 18.9475C47.4236 19.3302 47.7226 19.6525 48.1037 19.6652Z" fill="white"/>
<path fill-rule="evenodd" clip-rule="evenodd" d="M42.3605 5.05442C42.3605 5.05442 42.3605 5.05601 42.3613 5.0568C42.7005 6.00482 43.3215 7.22675 44.389 8.12633C46.3892 9.81195 49.157 9.72223 49.157 9.72223C49.3504 9.71588 49.531 9.62775 49.6573 9.48007C49.7835 9.33239 49.8419 9.13945 49.819 8.94651C49.819 8.94651 49.4805 6.10803 47.4749 4.41844C46.4073 3.51886 45.1039 3.1179 44.116 2.94799C44.1152 2.94799 44.1145 2.94799 44.1129 2.94799C43.559 2.8551 42.998 3.06391 42.6374 3.49663C42.2768 3.92935 42.1727 4.52246 42.3605 5.05442ZM43.6608 4.58677C43.6371 4.51849 43.6505 4.44306 43.6963 4.38748C43.742 4.3319 43.8138 4.3057 43.8849 4.31681C44.6786 4.45417 45.7311 4.76065 46.5888 5.48238C47.5751 6.31367 48.0516 7.49512 48.2726 8.28116C47.4772 8.18032 46.2606 7.88972 45.2759 7.06002C44.419 6.33749 43.9346 5.34819 43.6616 4.58597L43.6608 4.58677Z" fill="white"/>
<path fill-rule="evenodd" clip-rule="evenodd" d="M49.0718 9.72144C49.0718 9.72144 51.8389 9.81195 53.8398 8.12554C54.9074 7.22516 55.5283 6.00402 55.8676 5.05601C55.8676 5.05522 55.8676 5.05442 55.8684 5.05363C56.057 4.52166 55.9512 3.92856 55.5907 3.49584C55.2301 3.06312 54.6691 2.85351 54.1152 2.9472C54.1144 2.9472 54.1136 2.9472 54.1121 2.9472C53.125 3.1179 51.8208 3.51807 50.7532 4.41765C50.4589 4.66537 50.2009 4.93691 49.9729 5.22036C49.733 5.5189 49.7796 5.95638 50.077 6.19696C50.3737 6.43833 50.8085 6.39148 51.0475 6.09215C51.2203 5.87698 51.416 5.67055 51.6393 5.48238C52.4962 4.76065 53.5495 4.45338 54.3424 4.31681C54.4135 4.3057 54.4853 4.3319 54.531 4.38748C54.5768 4.44306 54.5902 4.51848 54.5665 4.58677C54.2935 5.34899 53.8091 6.33749 52.9514 7.06081C51.3442 8.41534 49.1176 8.33277 49.1176 8.33277C48.7365 8.31927 48.417 8.62019 48.4035 9.00288C48.3909 9.38638 48.6892 9.70794 49.0703 9.72144H49.0718Z" fill="white"/>
<path fill-rule="evenodd" clip-rule="evenodd" d="M46.1454 27.116C48.2505 22.2655 49.9208 16.0955 49.8198 8.82503C49.8151 8.44234 49.5011 8.13507 49.12 8.14062C48.7397 8.14539 48.4343 8.46139 48.4398 8.84488C48.5377 15.8867 46.9186 21.863 44.8806 26.5602C44.7283 26.9119 44.8877 27.3216 45.2372 27.4748C45.586 27.6281 45.9931 27.4677 46.1454 27.116Z" fill="white"/>
<path fill-rule="evenodd" clip-rule="evenodd" d="M26.1683 30.1347C26.1683 29.4296 25.8141 28.7714 25.2263 28.3871C24.5035 27.9139 23.3176 27.1374 22.5452 26.6324C21.8587 26.183 20.9735 26.183 20.287 26.6324C19.5154 27.1374 18.3287 27.9139 17.606 28.3871C17.0189 28.7714 16.6631 29.4296 16.6631 30.1347V42.3612C16.6631 42.9138 16.8816 43.4442 17.2698 43.8348C17.658 44.2254 18.1851 44.4454 18.7342 44.4454H25.4779C25.859 44.4454 26.1683 44.1341 26.1683 43.7506V30.1347ZM24.7876 30.1347V43.0559H18.7342C18.5512 43.0559 18.376 42.9829 18.2466 42.8526C18.1172 42.7224 18.0439 42.5454 18.0439 42.3612V30.1347C18.0439 29.8997 18.1622 29.6805 18.3579 29.5519C19.0806 29.0787 20.2665 28.3022 21.039 27.7972C21.2678 27.6479 21.5629 27.6479 21.7917 27.7972C22.5633 28.3022 23.75 29.0787 24.4727 29.5519C24.6684 29.6805 24.7876 29.8997 24.7876 30.1347Z" fill="white"/>
<path fill-rule="evenodd" clip-rule="evenodd" d="M33.6016 44.4454H41.7253C42.1072 44.4454 42.4157 44.1341 42.4157 43.7506V30.1347C42.4157 29.4296 42.0614 28.7714 41.4736 28.3871C40.7509 27.9139 39.5642 27.1374 38.7926 26.6324C38.1061 26.183 37.2208 26.183 36.5344 26.6324C35.7627 27.1374 34.5761 27.9139 33.8533 28.3871C33.5338 28.5959 33.443 29.0263 33.6506 29.3486C33.8581 29.6702 34.2857 29.7615 34.6061 29.5527C35.3288 29.0795 36.5155 28.303 37.2871 27.798C37.5159 27.6487 37.811 27.6487 38.0398 27.798C38.8115 28.303 39.9982 29.0795 40.7209 29.5527C40.9166 29.6813 41.0349 29.9004 41.0349 30.1355V43.0567H33.6016C33.2205 43.0567 32.9112 43.3679 32.9112 43.7514C32.9112 44.1349 33.2205 44.4454 33.6016 44.4454Z" fill="white"/>
<path fill-rule="evenodd" clip-rule="evenodd" d="M25.4779 44.4454H33.6016C33.9827 44.4454 34.292 44.1341 34.292 43.7506V30.1347C34.292 29.4296 33.937 28.7714 33.3499 28.3871C32.6272 27.9139 31.4405 27.1374 30.6689 26.6324C29.9824 26.183 29.0979 26.183 28.4107 26.6324C28.092 26.8404 27.6217 27.1493 27.127 27.4725C26.8074 27.6813 26.7167 28.1116 26.9242 28.434C27.1325 28.7555 27.5594 28.8468 27.8789 28.638C28.3736 28.3149 28.8447 28.006 29.1626 27.798C29.3915 27.6487 29.6866 27.6487 29.9154 27.798C30.687 28.303 31.8737 29.0795 32.5964 29.5527C32.7921 29.6813 32.9105 29.9004 32.9105 30.1355V43.0567H25.4779C25.0969 43.0567 24.7876 43.3679 24.7876 43.7514C24.7876 44.1349 25.0969 44.4454 25.4779 44.4454Z" fill="white"/>
<path fill-rule="evenodd" clip-rule="evenodd" d="M41.7253 44.4454H49.849C50.2301 44.4454 50.5394 44.1341 50.5394 43.7506V30.1347C50.5394 29.4296 50.1851 28.7714 49.5973 28.3871C48.8746 27.9139 47.6879 27.1374 46.9162 26.6324C46.2298 26.183 45.3445 26.183 44.6581 26.6324C43.8864 27.1374 42.6998 27.9139 41.977 28.3871C41.39 28.7714 41.0349 29.4296 41.0349 30.1355C41.0349 30.519 41.3442 30.8294 41.7253 30.8294C42.1064 30.8294 42.4157 30.5182 42.4157 30.1347C42.4157 29.8997 42.5341 29.6805 42.7297 29.5519C43.4525 29.0787 44.6392 28.3022 45.4108 27.7972C45.6396 27.6479 45.9347 27.6479 46.1635 27.7972C46.9352 28.3022 48.1219 29.0787 48.8446 29.5519C49.0403 29.6805 49.1586 29.8997 49.1586 30.1347V43.0559H41.7253C41.3442 43.0559 41.0349 43.3671 41.0349 43.7506C41.0349 44.1341 41.3442 44.4454 41.7253 44.4454Z" fill="white"/>
<path fill-rule="evenodd" clip-rule="evenodd" d="M49.849 44.4454H56.5927C57.1419 44.4454 57.6689 44.2254 58.0571 43.8348C58.4453 43.4442 58.6639 42.9138 58.6639 42.3612V30.1347C58.6639 29.4296 58.3088 28.7714 57.7218 28.3871C56.9991 27.9139 55.8124 27.1374 55.0407 26.6324C54.3543 26.183 53.4698 26.183 52.7826 26.6324C52.4078 26.8778 51.936 27.1866 51.4657 27.4947C51.1462 27.7035 51.0554 28.1338 51.2629 28.4562C51.4712 28.7778 51.8989 28.8691 52.2184 28.6602C52.6879 28.3522 53.1605 28.0433 53.5353 27.798C53.7641 27.6487 54.0592 27.6487 54.288 27.798C55.0597 28.303 56.2463 29.0795 56.9691 29.5527C57.1647 29.6813 57.2831 29.9004 57.2831 30.1355V42.362C57.2831 42.5462 57.2105 42.7224 57.0803 42.8534C56.9509 42.9836 56.775 43.0567 56.5927 43.0567H49.8498C49.4687 43.0567 49.1594 43.3679 49.1594 43.7514C49.1594 44.1349 49.4687 44.4462 49.8498 44.4462L49.849 44.4454Z" fill="white"/>
<path fill-rule="evenodd" clip-rule="evenodd" d="M20.7257 33.49V34.3237C20.7257 34.7072 21.035 35.0184 21.4161 35.0184C21.7972 35.0184 22.1065 34.7072 22.1065 34.3237V33.49C22.1065 33.1065 21.7972 32.7953 21.4161 32.7953C21.035 32.7953 20.7257 33.1065 20.7257 33.49Z" fill="white"/>
<path fill-rule="evenodd" clip-rule="evenodd" d="M36.9731 33.49V34.3237C36.9731 34.7072 37.2824 35.0184 37.6635 35.0184C38.0446 35.0184 38.3539 34.7072 38.3539 34.3237V33.49C38.3539 33.1065 38.0446 32.7953 37.6635 32.7953C37.2824 32.7953 36.9731 33.1065 36.9731 33.49Z" fill="white"/>
<path fill-rule="evenodd" clip-rule="evenodd" d="M28.8494 33.49V34.3237C28.8494 34.7072 29.1587 35.0184 29.5398 35.0184C29.9209 35.0184 30.2302 34.7072 30.2302 34.3237V33.49C30.2302 33.1065 29.9209 32.7953 29.5398 32.7953C29.1587 32.7953 28.8494 33.1065 28.8494 33.49Z" fill="white"/>
<path fill-rule="evenodd" clip-rule="evenodd" d="M45.0968 33.49V34.3237C45.0968 34.7072 45.4061 35.0184 45.7872 35.0184C46.1683 35.0184 46.4776 34.7072 46.4776 34.3237V33.49C46.4776 33.1065 46.1683 32.7953 45.7872 32.7953C45.4061 32.7953 45.0968 33.1065 45.0968 33.49Z" fill="white"/>
<path fill-rule="evenodd" clip-rule="evenodd" d="M53.2205 33.49V34.3237C53.2205 34.7072 53.5298 35.0184 53.9109 35.0184C54.2919 35.0184 54.6012 34.7072 54.6012 34.3237V33.49C54.6012 33.1065 54.2919 32.7953 53.9109 32.7953C53.5298 32.7953 53.2205 33.1065 53.2205 33.49Z" fill="white"/>
</svg>
