<svg width="20" height="21" viewBox="0 0 20 21" fill="none" xmlns="http://www.w3.org/2000/svg">
<g clip-path="url(#clip0_285_2453)">
<path d="M10 3.68928C10.3066 3.68928 10.5556 3.43488 10.5556 3.1217V0.567581C10.5556 0.254398 10.3066 0 10 0C9.69347 0 9.44446 0.254398 9.44446 0.567581V3.1217C9.44446 3.43488 9.69347 3.68928 10 3.68928Z" fill="white"/>
<path d="M4.69692 5.60076C4.80505 5.71174 4.94741 5.76698 5.08977 5.76698C5.23214 5.76698 5.374 5.71174 5.48263 5.60076C5.69989 5.3793 5.69989 5.02 5.48263 4.79804L3.71477 2.99191C3.49801 2.76995 3.14583 2.76995 2.92906 2.99191C2.7118 3.21337 2.7118 3.57267 2.92906 3.79463L4.69692 5.60076Z" fill="white"/>
<path d="M3.05556 9.64893H0.555556C0.249008 9.64893 0 9.90332 0 10.2165C0 10.5297 0.249008 10.7841 0.555556 10.7841H3.05556C3.3621 10.7841 3.61111 10.5297 3.61111 10.2165C3.61111 9.90332 3.3621 9.64893 3.05556 9.64893Z" fill="white"/>
<path d="M14.9107 5.76747C15.053 5.76747 15.1949 5.71223 15.3035 5.60125L17.0714 3.79512C17.2886 3.57367 17.2886 3.21437 17.0714 2.9924C16.8546 2.77044 16.5024 2.77044 16.2857 2.9924L14.5178 4.79853C14.3005 5.01998 14.3005 5.37928 14.5178 5.60125C14.6259 5.71223 14.7683 5.76747 14.9107 5.76747Z" fill="white"/>
<path d="M19.4445 9.64893H16.9445C16.6379 9.64893 16.3889 9.90332 16.3889 10.2165C16.3889 10.5297 16.6379 10.7841 16.9445 10.7841H19.4445C19.751 10.7841 20 10.5297 20 10.2165C20 9.90332 19.7515 9.64893 19.4445 9.64893Z" fill="white"/>
<path d="M11.9444 17.8789H8.05556C7.74901 17.8789 7.5 18.1333 7.5 18.4465C7.5 19.8548 8.62153 21.0006 10 21.0006C11.3785 21.0006 12.5 19.8548 12.5 18.4465C12.5 18.1328 12.2515 17.8789 11.9444 17.8789ZM10 19.8654C9.43155 19.8654 8.94196 19.5148 8.72718 19.0141H11.2728C11.058 19.5148 10.5685 19.8654 10 19.8654Z" fill="white"/>
<path d="M9.99996 4.25684C6.78319 4.25684 4.16663 6.93004 4.16663 10.2164C4.16663 12.5415 5.46276 14.6137 7.49996 15.5978V16.7436C7.49996 17.0568 7.74897 17.3112 8.05551 17.3112H11.9444C12.251 17.3112 12.5 17.0568 12.5 16.7436V15.5978C14.5372 14.6137 15.8333 12.5415 15.8333 10.2164C15.8333 6.93055 13.2167 4.25684 9.99996 4.25684ZM11.7395 14.6983C11.5277 14.7839 11.3888 14.9932 11.3888 15.2259V16.176H8.61107V15.2259C8.61107 14.9932 8.47218 14.7839 8.26038 14.6983C6.44837 13.9635 5.27774 12.2045 5.27774 10.2164C5.27774 7.5559 7.39629 5.392 9.99996 5.392C12.6036 5.392 14.7222 7.55641 14.7222 10.2164C14.7222 12.2045 13.5515 13.9635 11.7395 14.6983Z" fill="white"/>
</g>
<defs>
<clipPath id="clip0_285_2453">
<rect width="20" height="21" fill="white"/>
</clipPath>
</defs>
</svg>
