<svg width="50" height="56" viewBox="0 0 50 56" fill="none" xmlns="http://www.w3.org/2000/svg">
<circle cx="19.5" cy="19.5" r="19.5" fill="#43B0FF" fill-opacity="0.08"/>
<path fill-rule="evenodd" clip-rule="evenodd" d="M37.2695 21.2233C36.6666 21.2233 36.1734 21.7179 36.1734 22.3224V49.8017H32.8849V31.1158C32.8849 30.5112 32.3916 30.0166 31.7888 30.0166H25.2118C24.609 30.0166 24.1157 30.5112 24.1157 31.1158V49.8017H20.8272V37.7108C20.8272 37.1063 20.334 36.6116 19.7311 36.6116H13.1541C12.5513 36.6116 12.058 37.1063 12.058 37.7108V49.8017H9.86568C9.2628 49.8017 8.76953 50.2963 8.76953 50.9008C8.76953 51.5054 9.2628 52 9.86568 52H47.1349C47.7378 52 48.2311 51.5054 48.2311 50.9008C48.2311 50.2963 47.7378 49.8017 47.1349 49.8017H44.9426V22.3224C44.9426 21.7179 44.4493 21.2233 43.8465 21.2233H37.2695ZM38.3657 23.4216H42.7503V49.8017H38.3657V23.4216ZM26.308 32.215H30.6926V49.8017H26.308V32.215ZM14.2503 38.81H18.6349V49.8017H14.2503V38.81Z" fill="#43B0FF"/>
<path fill-rule="evenodd" clip-rule="evenodd" d="M38.3648 7C38.0798 7 37.8057 7.10992 37.5865 7.31876L35.3942 9.5171C34.9667 9.94577 34.9667 10.6383 35.3942 11.0669C35.8217 11.4956 36.5123 11.4956 36.9398 11.0669L37.159 10.8471C36.4355 14.2215 33.1909 17.1014 29.5736 19.4426C24.8711 22.4873 19.4671 24.5537 17.209 25.3451C16.6829 24.235 15.5538 23.4765 14.2494 23.4765C12.4298 23.4765 10.9609 24.9494 10.9609 26.7741C10.9609 28.5987 12.4298 30.0716 14.2494 30.0716C15.784 30.0716 17.0665 29.0164 17.4392 27.5984C19.3575 26.9389 25.485 24.7076 30.7684 21.2892C35.1202 18.4753 38.8142 14.8261 39.4171 10.6932L39.7788 11.0559C40.2063 11.4846 40.8969 11.4846 41.3244 11.0559C41.7519 10.6273 41.7519 9.93478 41.3244 9.50611L39.1321 7.30777C38.9238 7.10992 38.6498 7 38.3648 7ZM14.2494 25.6859C14.8523 25.6859 15.3456 26.1805 15.3456 26.785C15.3456 27.3896 14.8523 27.8842 14.2494 27.8842C13.6465 27.8842 13.1532 27.3896 13.1532 26.785C13.1532 26.1805 13.6465 25.6859 14.2494 25.6859Z" fill="#6B5CA6"/>
</svg>
