<svg width="38" height="50" viewBox="0 0 38 50" fill="none" xmlns="http://www.w3.org/2000/svg">
<g clip-path="url(#clip0_46_911)">
<path d="M14.9512 5.54635C15.5246 5.54635 16.0459 5.08263 16.0459 4.46433V1.68199C16.0459 1.11522 15.5767 0.599976 14.9512 0.599976C14.3256 0.599976 13.8564 1.0637 13.8564 1.68199V4.46433C13.9086 5.08263 14.3777 5.54635 14.9512 5.54635Z" fill="#43B0FF"/>
<path d="M9.8949 6.98909C10.1034 7.19519 10.3641 7.29824 10.6768 7.29824C10.9375 7.29824 11.2503 7.19519 11.4588 6.98909C11.8758 6.57689 11.8758 5.90707 11.4588 5.49487L9.47786 3.53693C9.06082 3.12473 8.38314 3.12473 7.9661 3.53693C7.54906 3.94913 7.54906 4.61895 7.9661 5.03115L9.8949 6.98909Z" fill="#43B0FF"/>
<path d="M19.2779 7.29824C19.5386 7.29824 19.8514 7.19519 20.0599 6.98909L22.0408 5.03115C22.4579 4.61895 22.4579 3.94913 22.0408 3.53693C21.6238 3.12473 20.9461 3.12473 20.5291 3.53693L18.5481 5.49487C18.1311 5.90707 18.1311 6.57689 18.5481 6.98909C18.7566 7.19519 19.0173 7.29824 19.2779 7.29824Z" fill="#43B0FF"/>
<path d="M37.7842 36.4096C37.7842 34.1425 35.9075 32.2876 33.5617 32.2876C32.7276 32.2876 31.8935 32.5453 31.2158 32.9575C30.5903 31.4632 29.0785 30.4327 27.3582 30.4327C26.5242 30.4327 25.6901 30.6904 25.0124 31.1026C24.3868 29.6084 22.8751 28.5779 21.1548 28.5779C20.425 28.5779 19.7473 28.7324 19.1739 29.0931V24.3528H23.8655C24.4911 24.3528 24.9603 23.8891 24.9603 23.2708V10.3896C24.9603 9.77134 24.4911 9.30762 23.8655 9.30762H6.03625C5.41069 9.30762 4.94152 9.77134 4.94152 10.3906V23.2708C4.94152 23.8891 5.41069 24.3528 6.03625 24.3528H10.7801V40.6862L8.01718 37.9554C6.55755 36.5642 4.31597 36.3066 2.64782 37.4401C1.65735 38.1099 0.979666 39.1404 0.823277 40.3255C0.666888 41.5106 0.979666 42.6956 1.76161 43.6231L6.50542 49.1877C6.71393 49.4454 7.02671 49.5999 7.33949 49.5999C7.60014 49.5999 7.86079 49.4969 8.06931 49.3423C8.53848 48.9301 8.59061 48.2603 8.2257 47.7966L3.48189 42.2834C3.11698 41.8197 2.9606 41.3045 3.01273 40.7377C3.11698 40.1709 3.42976 39.6557 3.89893 39.3465C4.68088 38.8313 5.7756 38.9343 6.45329 39.6042L9.84172 42.9533C10.363 43.4685 11.145 43.6231 11.8226 43.3655C12.5003 43.1078 12.9695 42.438 12.9695 41.7167V19.8702C12.9695 18.7882 13.8557 17.9122 14.9504 17.9122C15.4717 17.8607 15.993 18.1183 16.3579 18.479C16.7228 18.8397 16.9314 19.3549 16.9314 19.8702V34.7608C16.9314 35.3791 17.4527 35.8428 18.0261 35.8428C18.6516 35.8428 19.1208 35.3276 19.1208 34.7608V32.7514C19.1208 31.6693 20.007 30.7934 21.1017 30.7934C22.1965 30.7934 23.0827 31.6693 23.0827 32.7514V36.6157C23.0827 37.234 23.604 37.6977 24.1774 37.6977C24.8029 37.6977 25.2721 37.1825 25.2721 36.6157V34.6063C25.2721 33.5242 26.1583 32.6483 27.253 32.6483C28.3478 32.6483 29.234 33.5242 29.234 34.6063V38.4706C29.233 39.0889 29.7543 39.5526 30.3278 39.5526C30.9533 39.5526 31.4225 39.0374 31.4225 38.4706V36.4096C31.4225 35.3276 32.3087 34.4517 33.4034 34.4517C34.4981 34.4517 35.3843 35.3276 35.3843 36.4096V48.4149C35.3843 49.0332 35.9056 49.4969 36.4791 49.4969C37.1046 49.4969 37.5738 48.9816 37.5738 48.4149L37.7823 36.4096H37.7842ZM14.9514 15.6967C12.6577 15.6967 10.781 17.5516 10.781 19.8702V22.1373H7.18403V11.4717H22.8229V22.1373H19.226V19.8702C19.226 18.7366 18.809 17.7061 17.9749 16.9333C17.1408 16.1604 16.2025 15.7482 14.9514 15.6967Z" fill="#43B0FF"/>
</g>
<defs>
<clipPath id="clip0_46_911">
<rect width="37" height="49" fill="white" transform="translate(0.78418 0.599976)"/>
</clipPath>
</defs>
</svg>
