<svg width="52" height="61" viewBox="0 0 52 61" fill="none" xmlns="http://www.w3.org/2000/svg">
<circle cx="32.5" cy="30.5" r="19.5" fill="#43B0FF" fill-opacity="0.08"/>
<g clip-path="url(#clip0_1001_2138)">
<path fill-rule="evenodd" clip-rule="evenodd" d="M1.02381 33.6552C1.59714 33.6552 2.04762 34.1179 2.04762 34.7069C2.04762 35.2958 1.59714 35.7586 1.02381 35.7586C0.450476 35.7586 0 35.2958 0 34.7069C0 34.1179 0.450476 33.6552 1.02381 33.6552Z" fill="#43B0FF"/>
<path d="M22.5238 58.8965H32.7619V55.7413C32.7619 55.531 32.8233 55.3206 32.9257 55.1524L40.9524 42.8051V27.5341C40.5224 27.6813 40.1333 27.9337 39.8057 28.2703C39.2324 28.8593 38.9048 29.6586 38.9048 30.5V38.3248C38.9048 38.6403 38.7614 38.9558 38.5157 39.1451L27.7862 50.1672C27.3971 50.5879 26.7419 50.5879 26.3324 50.1672C25.9433 49.7886 25.9229 49.1365 26.2914 48.7368C26.2914 48.7368 26.3119 48.7158 26.3324 48.6948L31.0829 43.8148C31.2876 43.6044 31.39 43.352 31.39 43.0575C31.39 42.7841 31.2876 42.5106 31.0829 42.3213C30.7143 41.9217 30.0795 41.9006 29.6905 42.2793C29.6905 42.2793 29.67 42.3003 29.6495 42.3213L23.1176 49.0103C22.7286 49.41 22.5238 49.9358 22.5238 50.5037V58.8965ZM9.86952 41.6903C10.0129 41.3748 10.2176 41.0803 10.4633 40.8279C11.6714 39.6079 13.5962 39.6079 14.8043 40.8279L21.3157 47.5168L21.5 47.7062L21.6843 47.5168L28.1957 40.8279C29.4038 39.6079 31.3286 39.6079 32.5367 40.8279C32.7824 41.0803 32.9871 41.3748 33.1305 41.6903L36.8571 37.8831V30.5C36.8571 27.5972 39.1095 25.2624 41.9352 25.2413C41.9352 25.2413 41.9557 25.2413 41.9762 25.2413C42.5495 25.2413 43 25.7041 43 26.2931V43.1206C43 43.331 42.9386 43.5413 42.8362 43.7096L34.8095 56.0568V58.8965H35.8333C36.4067 58.8965 36.8571 59.3593 36.8571 59.9482C36.8571 60.5372 36.4067 61 35.8333 61H7.16667C6.59333 61 6.14286 60.5372 6.14286 59.9482C6.14286 59.3593 6.59333 58.8965 7.16667 58.8965H8.19048V56.0568L0.16381 43.7096C0.0614286 43.5413 0 43.331 0 43.1206V38.9137C0 38.3248 0.450476 37.862 1.02381 37.862C1.59714 37.862 2.04762 38.3248 2.04762 38.9137V42.8051L10.0743 55.1524C10.1767 55.3206 10.2381 55.531 10.2381 55.7413V58.8965H20.4762V50.4827C20.4762 49.9148 20.2714 49.3889 19.8824 48.9893L13.3095 42.3213C12.941 41.9217 12.3062 41.9006 11.9171 42.2793C11.9171 42.2793 11.8967 42.3003 11.8762 42.3213C11.6714 42.5106 11.569 42.7841 11.569 43.0575C11.569 43.331 11.6714 43.5834 11.8352 43.7727L16.6267 48.6948C17.0157 49.0734 17.0362 49.7255 16.6676 50.1251C16.6676 50.1251 16.6471 50.1462 16.6267 50.1672C16.299 50.4827 15.8076 50.5248 15.439 50.2934C15.3571 50.2513 15.2752 50.2093 15.2138 50.1251L4.44333 39.1241C4.2181 38.9137 4.09524 38.6193 4.09524 38.3248V30.5C4.09524 29.6586 3.76762 28.8593 3.19429 28.2703C2.86667 27.9337 2.47762 27.6813 2.04762 27.5341V30.5C2.04762 31.0889 1.59714 31.5517 1.02381 31.5517C0.450476 31.5517 0 31.0889 0 30.5V26.2931C0 25.7041 0.450476 25.2413 1.02381 25.2413C3.84952 25.2413 6.12238 27.5551 6.14286 30.4579C6.14286 30.4579 6.14286 30.4789 6.14286 30.5V37.8831L9.86952 41.6903Z" fill="#43B0FF"/>
<path d="M7.16592 21.0345H3.07068C2.49735 21.0345 2.04688 20.5717 2.04688 19.9828C2.04688 19.3938 2.49735 18.931 3.07068 18.931H7.16592C7.73926 18.931 8.18973 19.3938 8.18973 19.9828C8.18973 20.5717 7.73926 21.0345 7.16592 21.0345Z" fill="#6B5CA6"/>
<path d="M11.365 10.6225C11.0988 10.6225 10.8326 10.5173 10.6484 10.3069L7.74074 7.3621C7.33121 6.94141 7.33121 6.26831 7.74074 5.84762C8.15026 5.42693 8.8055 5.42693 9.21502 5.84762L12.0817 8.83452C12.4707 9.21314 12.4912 9.86521 12.1226 10.2649C12.1226 10.2649 12.1022 10.2859 12.0817 10.3069C11.8974 10.5173 11.6312 10.6225 11.365 10.6225Z" fill="#6B5CA6"/>
<path d="M21.5004 6.31034C20.927 6.31034 20.4766 5.84759 20.4766 5.25862V1.05172C20.4766 0.462759 20.927 0 21.5004 0C22.0737 0 22.5242 0.462759 22.5242 1.05172V5.25862C22.5242 5.84759 22.0737 6.31034 21.5004 6.31034Z" fill="#6B5CA6"/>
<path d="M31.7385 10.6225C31.4723 10.6225 31.2061 10.5173 31.0218 10.3069C30.6328 9.92831 30.6123 9.27624 30.9809 8.87659C30.9809 8.87659 31.0014 8.85555 31.0218 8.83452L33.7861 5.84762C34.1957 5.42693 34.8304 5.42693 35.2399 5.84762C35.6495 6.26831 35.6495 6.92038 35.2399 7.34107L32.3528 10.3069C32.1685 10.5173 31.9023 10.6225 31.6361 10.6225H31.7385Z" fill="#6B5CA6"/>
<path d="M39.9276 21.0345H35.8324C35.2591 21.0345 34.8086 20.5717 34.8086 19.9828C34.8086 19.3938 35.2591 18.931 35.8324 18.931H39.9276C40.501 18.931 40.9515 19.3938 40.9515 19.9828C40.9515 20.5717 40.501 21.0345 39.9276 21.0345Z" fill="#6B5CA6"/>
<path d="M21.5005 37.862C21.3776 37.862 21.2548 37.862 21.1319 37.862L20.19 37.4624C14.1495 35.0013 10.1976 28.9855 10.2386 22.2965V15.7758C10.2386 15.3551 10.4843 14.9555 10.8734 14.8082L21.1115 10.6013C21.3572 10.4962 21.6438 10.4962 21.8895 10.6013L32.1276 14.8082C32.5167 14.9555 32.7624 15.3551 32.7624 15.7758V22.2965C32.7624 28.9434 28.831 34.9382 22.811 37.3993L21.8691 37.7989C21.7462 37.7989 21.6234 37.7989 21.5005 37.7989V37.862ZM12.2862 16.491V22.2965C12.2657 28.102 15.7057 33.3186 20.9476 35.4641L21.5005 35.6744L22.0329 35.4641C27.2953 33.3186 30.7353 28.102 30.7148 22.2965V16.491L21.5005 12.7048L12.2862 16.491Z" fill="#6B5CA6"/>
<path d="M19.4526 27.3448C19.1864 27.3448 18.9202 27.2396 18.7359 27.0293L16.6883 24.9258C16.2992 24.5262 16.2992 23.8531 16.6883 23.4534C17.0773 23.0538 17.7326 23.0538 18.1216 23.4534L19.4526 24.7996L24.8787 19.2465C25.2678 18.8469 25.923 18.8469 26.3121 19.2465C26.7011 19.6462 26.7011 20.3193 26.3121 20.7189L20.1692 27.0293C19.9849 27.2396 19.7187 27.3448 19.4526 27.3448Z" fill="#6B5CA6"/>
</g>
<defs>
<clipPath id="clip0_1001_2138">
<rect width="43" height="61" fill="white"/>
</clipPath>
</defs>
</svg>
