<svg width="44" height="43" viewBox="0 0 44 43" fill="none" xmlns="http://www.w3.org/2000/svg">
<g clip-path="url(#clip0_46_896)">
<path d="M28.2101 9.86286C29.0325 9.86286 29.6359 9.27251 29.6359 8.46791V1.49504C29.6359 0.690443 29.0325 0.100098 28.2101 0.100098C27.3876 0.100098 26.7842 0.690443 26.7842 1.49504V8.46791C26.7842 9.27251 27.4976 9.86286 28.2101 9.86286Z" fill="#7558EA"/>
<path d="M26.7842 26.5985C26.7842 27.4031 27.3876 27.9935 28.2101 27.9935C29.0325 27.9935 29.6359 27.4031 29.6359 26.5985V20.5903C29.6359 19.7857 29.0325 19.1953 28.2101 19.1953C27.3876 19.1953 26.7842 19.7857 26.7842 20.5903V26.5985Z" fill="#7558EA"/>
<path d="M42.027 14.0468H34.8995C34.0771 14.0468 33.4736 14.6371 33.4736 15.4417C33.4736 16.2463 34.0771 16.8366 34.8995 16.8366H42.027C42.8495 16.8366 43.4529 16.2463 43.4529 15.4417C43.4529 14.6371 42.8495 14.0468 42.027 14.0468Z" fill="#7558EA"/>
<path d="M16.3673 14.0468C15.5448 14.0468 14.9414 14.6371 14.9414 15.4417C14.9414 16.2463 15.5448 16.8366 16.3673 16.8366H22.5079C23.3303 16.8366 23.9337 16.2463 23.9337 15.4417C23.9337 14.6371 23.3303 14.0468 22.5079 14.0468H16.3673Z" fill="#7558EA"/>
<path d="M34.5152 10.7741L39.3953 5.99985C39.9433 5.46376 39.9433 4.55158 39.3953 4.06882C38.8474 3.53273 37.9149 3.53273 37.4215 4.06882L32.5414 8.78882C31.9934 9.32491 31.9934 10.2371 32.5414 10.7199C32.8158 10.9884 33.1993 11.1493 33.5283 11.1493C33.8573 11.1493 34.2962 11.0426 34.5152 10.7741Z" fill="#7558EA"/>
<path d="M0.905214 41.6707C1.12422 41.9392 1.50865 42.1002 1.89214 42.1002C2.27563 42.1002 2.60461 41.9392 2.87907 41.6707L25.6884 19.4105C26.2364 18.8744 26.2364 17.9622 25.6884 17.4795C25.1404 16.9434 24.208 16.9434 23.7145 17.4795L0.905214 39.7397C0.301778 40.2224 0.301778 41.1346 0.905214 41.6707Z" fill="#7558EA"/>
<path d="M34.022 17.4261C33.4741 16.89 32.5417 16.89 32.0482 17.4261C31.5002 17.9622 31.5002 18.8744 32.0482 19.3572L36.9283 24.1314C37.2028 24.3999 37.5863 24.5608 37.9152 24.5608C38.2442 24.5608 38.6277 24.3999 38.9022 24.1314C39.4502 23.5953 39.4502 22.6831 38.9022 22.2004L34.022 17.4261Z" fill="#7558EA"/>
<path d="M25.2493 10.7741C25.7973 10.238 25.7973 9.32582 25.2493 8.84306L20.3692 4.01547C19.8212 3.47938 18.8888 3.47938 18.3954 4.01547C17.8474 4.55156 17.8474 5.46375 18.3954 5.94651L23.2755 10.7208C23.5499 10.9893 23.9334 11.1502 24.2624 11.1502C24.5914 11.1502 24.9749 11.0426 25.2493 10.7741Z" fill="#7558EA"/>
</g>
<defs>
<clipPath id="clip0_46_896">
<rect width="43" height="42" fill="white" transform="translate(0.453125 0.100098)"/>
</clipPath>
</defs>
</svg>
