<svg width="54" height="60" viewBox="0 0 54 60" fill="none" xmlns="http://www.w3.org/2000/svg">
<g clip-path="url(#clip0_1001_2137)">
<path d="M25 32C27.21 32 29 33.79 29 36H31C31 33.03 28.83 30.57 26 30.09V28H24V30.09C21.17 30.57 19 33.03 19 36C19 39.31 21.69 42 25 42C27.21 42 29 43.79 29 46C29 48.21 27.21 50 25 50C22.79 50 21 48.21 21 46H19C19 48.97 21.17 51.43 24 51.91V54H26V51.91C28.83 51.43 31 48.97 31 46C31 42.69 28.31 40 25 40C22.79 40 21 38.21 21 36C21 33.79 22.79 32 25 32Z" fill="#7558EA"/>
<path d="M49 12H37C34.24 12 32 14.24 32 17V23.35C29.77 22.46 27.43 22 25 22C14.52 22 6 30.52 6 41C6 51.48 14.52 60 25 60C35.48 60 44 51.48 44 41C44 38.57 43.54 36.23 42.65 34H49C51.76 34 54 31.76 54 29V17C54 14.24 51.76 12 49 12ZM42 41C42 50.37 34.37 58 25 58C15.63 58 8 50.37 8 41C8 31.63 15.63 24 25 24C27.44 24 29.79 24.53 32 25.54V29C32 31.76 34.24 34 37 34H40.46C41.47 36.21 42 38.56 42 41ZM52 29C52 30.65 50.65 32 49 32H37C35.35 32 34 30.65 34 29V17C34 15.35 35.35 14 37 14H49C50.65 14 52 15.35 52 17V29Z" fill="#7558EA"/>
<path d="M39.9991 25.59L37.7091 23.29L36.2891 24.71L39.9991 28.41L48.7091 19.71L47.2891 18.29L39.9991 25.59Z" fill="#6B5CA6"/>
</g>
<circle cx="19.5" cy="19.5" r="19.5" fill="#7558EA" fill-opacity="0.08"/>
<defs>
<clipPath id="clip0_1001_2137">
<rect width="48" height="48" fill="white" transform="translate(6 12)"/>
</clipPath>
</defs>
</svg>
