<svg width="59" height="64" viewBox="0 0 59 64" fill="none" xmlns="http://www.w3.org/2000/svg">
<g clip-path="url(#clip0_958_2242)">
<path d="M1.07554 14.3308C0.702686 14.7148 0.702686 15.3401 1.07554 15.7241L9.51722 24.4241C9.89007 24.8082 10.4971 24.8082 10.87 24.4241C11.2428 24.0401 11.2428 23.4148 10.87 23.0308L2.42353 14.3308C2.05068 13.9467 1.44838 13.9467 1.07554 14.3308Z" fill="#564599"/>
<path d="M28.3603 19.1312V6.98472C28.3603 6.44312 27.9301 6 27.4043 6C26.8785 6 26.4482 6.44312 26.4482 6.98472V19.1312C26.4482 19.6728 26.8785 20.116 27.4043 20.116C27.9301 20.116 28.3603 19.6728 28.3603 19.1312Z" fill="#564599"/>
<path d="M15.3487 6.90596C15.2148 6.37913 14.6938 6.0591 14.1823 6.19696C13.6709 6.33482 13.3602 6.87149 13.494 7.39832L16.3621 19.215C16.4959 19.7418 17.0169 20.0618 17.5284 19.924C18.0399 19.7861 18.3506 19.2494 18.2168 18.7226L15.3487 6.90596Z" fill="#564599"/>
<path d="M0.932408 36.7823C3.93432 41.2135 3.91042 43.2125 3.8913 45.1524C3.7479 59.2536 13.2364 63.611 18.8722 63.9606C19.3024 63.9852 19.7183 64 20.1341 64C25.4066 64.064 30.4496 61.7991 33.9965 57.7814L37.1274 54.2266L37.18 54.1626L38.7336 52.395C40.4257 50.6521 40.4209 47.8259 38.7336 46.0879C38.1456 45.4823 37.3999 45.0638 36.5873 44.8816C37.1561 42.7497 35.942 40.539 33.8674 39.9531C33.6714 39.8989 33.4659 39.8596 33.2651 39.8349C33.4181 39.3918 33.4993 38.929 33.5041 38.4563C33.5089 36.3392 32.0605 34.5125 30.0433 34.0989L35.2297 28.7371C36.9219 26.9991 36.9267 24.1779 35.2393 22.4349C33.5519 20.692 30.8129 20.6871 29.1207 22.4251C29.0825 22.4645 29.049 22.4989 29.0156 22.5383C23.332 28.7864 16.267 35.8961 13.4802 37.0629C11.855 37.7522 11.463 37.2156 10.2058 35.0935C9.33107 33.4293 8.17428 31.9473 6.78327 30.7115C5.12935 29.328 3.18384 29.2886 1.57294 30.6032C-0.24828 32.0852 -0.511187 34.6356 0.937188 36.7823H0.932408ZM35.6599 46.7575C36.3005 46.7575 36.9171 47.0185 37.3664 47.4862C38.3081 48.4709 38.2986 50.0563 37.3425 51.0312C37.3425 51.0312 37.3378 51.0361 37.333 51.041L35.8177 52.7594C34.9859 53.1631 34.0012 52.9908 33.3416 52.331L33.2555 52.2375C32.4477 51.4202 32.3664 50.1056 33.0739 49.1898L35.464 46.728L35.6599 46.7575ZM34.2259 42.3558C34.962 43.1042 35.0098 44.3105 34.3406 45.1229C34.3024 45.1623 34.2641 45.2017 34.2307 45.246L31.4869 48.0721C30.6982 48.3675 29.8091 48.1804 29.202 47.5798L29.0873 47.4616C28.3081 46.6295 28.2508 45.3297 28.9534 44.4286C29.3358 44.1234 30.9372 42.8186 31.788 42.0653C32.5672 41.5779 33.5663 41.701 34.2163 42.3558H34.2259ZM30.8798 36.6888C31.3339 37.1516 31.5921 37.7867 31.5873 38.4465C31.5251 39.2441 31.1666 39.9925 30.5835 40.5242C30.0003 41.0461 28.7431 42.085 27.8158 42.8334C27.0127 43.0697 26.1427 42.8334 25.5548 42.2229L25.4926 42.1589C24.5844 41.2234 24.5844 39.7118 25.4926 38.7764L27.7393 36.4623C28.6905 35.7188 30.029 35.8124 30.875 36.6838H30.8798V36.6888ZM2.75841 32.1246C3.67619 31.3762 4.59876 31.4057 5.5739 32.2181C6.79283 33.3112 7.80621 34.6208 8.56625 36.0881C9.0108 36.9448 9.5653 37.7276 10.2202 38.4268C10.2393 38.4563 10.2584 38.4809 10.2775 38.5056C10.3588 38.5942 12.1896 40.6572 10.3253 43.6556C10.0576 44.1234 10.2106 44.729 10.6647 45.0047C11.0949 45.2657 11.6542 45.1426 11.9362 44.7142C13.0022 43.1387 13.3272 41.1495 12.8158 39.2983C13.289 39.2293 13.7527 39.1013 14.1924 38.9093C17.9544 37.319 26.7737 27.8903 30.397 23.9071C30.8416 23.4147 31.463 23.1292 32.1179 23.1193C32.7728 23.1095 33.4037 23.3704 33.8674 23.848C34.8091 24.818 34.8139 26.3935 33.8674 27.3635L24.1351 37.3682C22.4764 39.0668 22.4716 41.829 24.1207 43.5375C24.1255 43.5424 24.1303 43.5473 24.1351 43.5522L24.1877 43.6064C24.8473 44.2859 25.7077 44.7191 26.6303 44.8422C26.2909 46.2848 26.702 47.8112 27.7202 48.8648L27.7584 48.8993L27.7967 48.9387C28.571 49.7314 29.6227 50.1745 30.7125 50.1696C30.5787 51.4448 31.0185 52.7101 31.898 53.6161L31.9697 53.6998C32.5242 54.266 33.2221 54.6648 33.9821 54.8421L32.5481 56.4718L32.5098 56.5161C29.0443 60.3614 24.0682 62.3752 18.9869 61.9862C16.5251 61.7646 14.1542 60.9227 12.0844 59.5244H12.9448C15.3349 59.3668 17.5194 57.875 19.4697 55.0932C19.7661 54.6451 19.6561 54.0297 19.2211 53.7244C18.8005 53.429 18.2269 53.5275 17.9162 53.946C16.3244 56.2305 14.6179 57.4516 12.8397 57.5747C10.3588 57.7421 8.45153 55.6988 8.42285 55.6692C8.37983 55.6249 8.33203 55.5806 8.28422 55.5461C6.78805 53.1139 5.76032 49.7757 5.80812 45.1623C5.83681 42.5577 5.60736 40.2042 2.50507 35.6351C1.78327 34.5913 1.58728 33.0847 2.75841 32.1197V32.1246Z" fill="#7558EA"/>
</g>
<circle cx="39.5" cy="19.5" r="19.5" fill="#7558EA" fill-opacity="0.08"/>
<defs>
<clipPath id="clip0_958_2242">
<rect width="40" height="58" fill="white" transform="translate(0 6)"/>
</clipPath>
</defs>
</svg>
