<svg width="34" height="36" viewBox="0 0 34 36" fill="none" xmlns="http://www.w3.org/2000/svg">
<path fill-rule="evenodd" clip-rule="evenodd" d="M18.0352 3.77531V26.846C18.0352 27.4349 17.5484 27.9152 16.9498 27.9152C16.3511 27.9152 15.8643 27.4358 15.8643 26.846V3.77531L9.80622 9.74367C9.38222 10.1613 8.69365 10.1613 8.2688 9.74367C7.84481 9.32601 7.83039 8.62685 8.28237 8.21587L16.9922 0.287842H17.3542L17.4373 0.369703L17.5069 0.4382C17.6044 0.534261 17.7019 0.630323 17.7994 0.726385C18.1191 1.0413 18.4397 1.34953 18.7662 1.6586C19.6981 2.55657 20.6445 3.44703 21.5832 4.33748C22.4109 5.12518 23.2385 5.90704 24.0594 6.69475C24.5953 7.20179 25.1304 7.70883 25.6527 8.22255C26.0767 8.64021 26.0767 9.31849 25.6527 9.73699C25.2287 10.1547 24.5402 10.1547 24.1153 9.73699L18.0564 3.76946L18.0352 3.77614V3.77531ZM2.8925 33.2387H31.0079V17.5063C31.0079 16.9174 31.4946 16.4371 32.0933 16.4371C32.692 16.4371 33.1787 16.9166 33.1787 17.5063V34.3138C33.1787 34.9027 32.692 35.383 32.0933 35.383H1.80028C1.20244 35.383 0.714844 34.9035 0.714844 34.3138V17.5063C0.714844 16.9174 1.20159 16.4371 1.80028 16.4371C2.39897 16.4371 2.88572 16.9166 2.88572 17.5063V33.2387H2.89335H2.8925Z" fill="#7558EA"/>
</svg>
