<?xml version="1.0" encoding="utf-8"?>
<!-- Generator: Adobe Illustrator 23.0.5, SVG Export Plug-In . SVG Version: 6.00 Build 0)  -->
<svg version="1.1" id="Layer_1" xmlns="http://www.w3.org/2000/svg" xmlns:xlink="http://www.w3.org/1999/xlink" x="0px" y="0px"
	 viewBox="0 0 74 60" style="enable-background:new 0 0 74 60;" xml:space="preserve">
<style type="text/css">
	.st0{fill:#FFFFFF;fill-opacity:0.12;}
	.st1{fill:none;stroke:#FFFFFF;stroke-width:2;stroke-linecap:round;stroke-linejoin:round;}
</style>
<g>
	<ellipse class="st0" cx="19.6" cy="22.1" rx="19" ry="19.9"/>
	<ellipse class="st0" cx="54.4" cy="37.9" rx="19" ry="19.9"/>
</g>
<g id="IR">
	<path class="st1" d="M27.4,42.8l-9.5-9.5c-0.2-0.2-0.4-0.5-0.5-0.7c-0.1-0.3-0.2-0.6-0.2-0.9c0-0.3,0.1-0.6,0.2-0.9
		c0.1-0.3,0.3-0.5,0.5-0.7L40.8,7c0.2-0.2,0.5-0.4,0.7-0.5c0.3-0.1,0.6-0.2,0.9-0.2c0.3,0,0.6,0.1,0.9,0.2c0.3,0.1,0.5,0.3,0.7,0.5
		l12.3,12.3c0.2,0.2,0.4,0.5,0.5,0.7c0.1,0.3,0.2,0.6,0.2,0.9s-0.1,0.6-0.2,0.9c-0.1,0.3-0.3,0.5-0.5,0.7L36.4,42.7"/>
	<path class="st1" d="M26.1,21.8l15.5,15.6"/>
	<path class="st1" d="M17.2,52.6h10.2"/>
	<path class="st1" d="M44.3,52.6h3.4"/>
	<path class="st1" d="M54.4,52.6h3.4"/>
	<path class="st1" d="M34.1,52.6h3.4"/>
</g>
</svg>
