<?xml version="1.0" encoding="utf-8"?>
<!-- Generator: Adobe Illustrator 23.0.5, SVG Export Plug-In . SVG Version: 6.00 Build 0)  -->
<svg version="1.1" id="Layer_1" xmlns="http://www.w3.org/2000/svg" xmlns:xlink="http://www.w3.org/1999/xlink" x="0px" y="0px"
	 viewBox="0 0 74 60" style="enable-background:new 0 0 74 60;" xml:space="preserve">
<style type="text/css">
	.st0{fill:none;stroke:#FFFFFF;stroke-width:2;stroke-linecap:round;stroke-linejoin:round;}
	.st1{fill:#FFFFFF;fill-opacity:0.12;}
</style>
<g id="D2D">
	<path id="Shape" class="st0" d="M48.5,38.6c-6.7,0-13.1-3.1-17.1-8.3c-4-5.2-5.2-11.9-3.2-18.1c-8.9,3.9-13.8,13.2-12,22.4
		s10,16.1,19.7,16.6c9.7,0.5,18.6-5.5,21.5-14.4C54.6,38,51.6,38.6,48.5,38.6L48.5,38.6z"/>
	<path id="Shape_2" class="st0" d="M37.1,13.4h9.8"/>
	<path id="Shape_3" class="st0" d="M42,8.7v9.4"/>
	<path id="Shape_4" class="st0" d="M51.8,22.8h6.5"/>
	<path id="Shape_5" class="st0" d="M55,19.7V26"/>
</g>
<g>
	<ellipse class="st1" cx="19.6" cy="22.1" rx="19" ry="19.9"/>
	<ellipse class="st1" cx="54.4" cy="37.9" rx="19" ry="19.9"/>
</g>
</svg>
