<svg width="72" height="73" viewBox="0 0 72 73" fill="none" xmlns="http://www.w3.org/2000/svg">
<rect y="0.433594" width="72" height="72" rx="16" fill="#EBF7FF"/>
<path d="M36 17.4336C30.9609 17.4336 26.1282 19.4354 22.565 22.9986C19.0018 26.5618 17 31.3945 17 36.4336C17 41.4727 19.0018 46.3054 22.565 49.8686C26.1282 53.4318 30.9609 55.4336 36 55.4336L36 36.4336V17.4336Z" fill="#43B0FF"/>
<path d="M36 55.4336C41.0391 55.4336 45.8718 53.4318 49.435 49.8686C52.9982 46.3054 55 41.4727 55 36.4336C55 31.3945 52.9982 26.5618 49.435 22.9986C45.8718 19.4354 41.0391 17.4336 36 17.4336L36 36.4336L36 55.4336Z" fill="#A4D9FF"/>
</svg>
