<svg width="74" height="60" viewBox="0 0 74 60" fill="none" xmlns="http://www.w3.org/2000/svg">
<path d="M34.9336 0.899414L8.43359 9.85301V16.2563L9.49359 15.8931L34.9336 7.29484L61.4336 16.2484V9.85301L34.9336 0.899414ZM34.9336 2.56538L59.8275 10.9821V14.0535L34.9336 5.63676L10.0397 14.0535V10.9821L34.9336 2.56538ZM10.8427 16.738C10.401 16.738 10.0397 17.0933 10.0397 17.5275C10.0397 17.9618 10.401 18.3171 10.8427 18.3171C11.2844 18.3171 11.6457 17.9618 11.6457 17.5275C11.6457 17.0933 11.2844 16.738 10.8427 16.738ZM59.0245 16.738C58.5828 16.738 58.2215 17.0933 58.2215 17.5275C58.2215 17.9618 58.5828 18.3171 59.0245 18.3171C59.4662 18.3171 59.8275 17.9618 59.8275 17.5275C59.8275 17.0933 59.4662 16.738 59.0245 16.738ZM26.1003 19.1066C23.4503 19.1066 21.2821 21.2384 21.2821 23.844V29.3709C18.6321 29.3709 16.4639 31.5027 16.4639 34.1082C16.4639 36.1532 17.821 37.8429 19.676 38.5061V45.9516C19.676 46.3859 20.0374 46.7412 20.479 46.7412H21.2821V49.8994H26.9033V46.7412H42.9639V49.8994H48.5851V46.7412H49.3881C49.8298 46.7412 50.1912 46.3859 50.1912 45.9516V38.5061C52.0462 37.8429 53.4033 36.1532 53.4033 34.1082C53.4033 31.5027 51.2351 29.3709 48.5851 29.3709V23.844C48.5851 21.2384 46.4169 19.1066 43.7669 19.1066H26.1003V19.1066ZM10.8427 19.8962C10.401 19.8962 10.0397 20.2515 10.0397 20.6857C10.0397 21.12 10.401 21.4753 10.8427 21.4753C11.2844 21.4753 11.6457 21.12 11.6457 20.6857C11.6457 20.2515 11.2844 19.8962 10.8427 19.8962ZM59.0245 19.8962C58.5828 19.8962 58.2215 20.2515 58.2215 20.6857C58.2215 21.12 58.5828 21.4753 59.0245 21.4753C59.4662 21.4753 59.8275 21.12 59.8275 20.6857C59.8275 20.2515 59.4662 19.8962 59.0245 19.8962ZM26.1003 20.6857H43.7669C45.5497 20.6857 46.979 22.0912 46.979 23.844V29.6472C45.116 30.3026 43.7669 32.0554 43.7669 34.1082V35.3794C42.1769 34.8978 38.9648 34.1082 34.9336 34.1082C30.9024 34.1082 27.6903 34.8978 26.1003 35.3794V34.1082C26.1003 32.0554 24.7512 30.3026 22.8881 29.6472V23.844C22.8881 22.0912 24.3175 20.6857 26.1003 20.6857V20.6857ZM10.8427 23.0544C10.401 23.0544 10.0397 23.4097 10.0397 23.844C10.0397 24.2782 10.401 24.6335 10.8427 24.6335C11.2844 24.6335 11.6457 24.2782 11.6457 23.844C11.6457 23.4097 11.2844 23.0544 10.8427 23.0544ZM59.0245 23.0544C58.5828 23.0544 58.2215 23.4097 58.2215 23.844C58.2215 24.2782 58.5828 24.6335 59.0245 24.6335C59.4662 24.6335 59.8275 24.2782 59.8275 23.844C59.8275 23.4097 59.4662 23.0544 59.0245 23.0544ZM31.7215 23.844C31.2798 23.844 30.9184 24.1993 30.9184 24.6335C30.9184 25.0678 31.2798 25.4231 31.7215 25.4231C32.1631 25.4231 32.5245 25.0678 32.5245 24.6335C32.5245 24.1993 32.1631 23.844 31.7215 23.844ZM38.1457 23.844C37.704 23.844 37.3427 24.1993 37.3427 24.6335C37.3427 25.0678 37.704 25.4231 38.1457 25.4231C38.5874 25.4231 38.9487 25.0678 38.9487 24.6335C38.9487 24.1993 38.5874 23.844 38.1457 23.844ZM10.8427 26.2127C10.401 26.2127 10.0397 26.568 10.0397 27.0022C10.0397 27.4365 10.401 27.7918 10.8427 27.7918C11.2844 27.7918 11.6457 27.4365 11.6457 27.0022C11.6457 26.568 11.2844 26.2127 10.8427 26.2127ZM59.0245 26.2127C58.5828 26.2127 58.2215 26.568 58.2215 27.0022C58.2215 27.4365 58.5828 27.7918 59.0245 27.7918C59.4662 27.7918 59.8275 27.4365 59.8275 27.0022C59.8275 26.568 59.4662 26.2127 59.0245 26.2127ZM28.5094 28.5813C28.0677 28.5813 27.7063 28.9366 27.7063 29.3709C27.7063 29.8052 28.0677 30.1605 28.5094 30.1605C28.951 30.1605 29.3124 29.8052 29.3124 29.3709C29.3124 28.9366 28.951 28.5813 28.5094 28.5813ZM34.9336 28.5813C34.4919 28.5813 34.1306 28.9366 34.1306 29.3709C34.1306 29.8052 34.4919 30.1605 34.9336 30.1605C35.3753 30.1605 35.7366 29.8052 35.7366 29.3709C35.7366 28.9366 35.3753 28.5813 34.9336 28.5813ZM41.3578 28.5813C40.9162 28.5813 40.5548 28.9366 40.5548 29.3709C40.5548 29.8052 40.9162 30.1605 41.3578 30.1605C41.7995 30.1605 42.1609 29.8052 42.1609 29.3709C42.1609 28.9366 41.7995 28.5813 41.3578 28.5813ZM10.8427 29.3709C10.401 29.3709 10.0397 29.7262 10.0397 30.1605C10.0397 30.5947 10.401 30.95 10.8427 30.95C11.2844 30.95 11.6457 30.5947 11.6457 30.1605C11.6457 29.7262 11.2844 29.3709 10.8427 29.3709ZM59.0245 29.3709C58.5828 29.3709 58.2215 29.7262 58.2215 30.1605C58.2215 30.5947 58.5828 30.95 59.0245 30.95C59.4662 30.95 59.8275 30.5947 59.8275 30.1605C59.8275 29.7262 59.4662 29.3709 59.0245 29.3709ZM21.2821 30.95C23.0648 30.95 24.4942 32.3554 24.4942 34.1082V40.4247C24.4942 40.859 24.8556 41.2143 25.2972 41.2143H44.57C45.0116 41.2143 45.373 40.859 45.373 40.4247V34.1082C45.373 32.3554 46.8024 30.95 48.5851 30.95C50.3678 30.95 51.7972 32.3554 51.7972 34.1082C51.7972 35.6479 50.689 36.9112 49.2275 37.2033C48.8501 37.2744 48.5851 37.5981 48.5851 37.9771V45.1621H21.2821V37.9771C21.2821 37.606 21.009 37.2823 20.6397 37.2033C19.1781 36.9112 18.07 35.6479 18.07 34.1082C18.07 32.3554 19.4994 30.95 21.2821 30.95ZM10.8427 32.5291C10.401 32.5291 10.0397 32.8844 10.0397 33.3187C10.0397 33.7529 10.401 34.1082 10.8427 34.1082C11.2844 34.1082 11.6457 33.7529 11.6457 33.3187C11.6457 32.8844 11.2844 32.5291 10.8427 32.5291ZM59.0245 32.5291C58.5828 32.5291 58.2215 32.8844 58.2215 33.3187C58.2215 33.7529 58.5828 34.1082 59.0245 34.1082C59.4662 34.1082 59.8275 33.7529 59.8275 33.3187C59.8275 32.8844 59.4662 32.5291 59.0245 32.5291ZM21.2821 33.3187C20.8404 33.3187 20.479 33.674 20.479 34.1082C20.479 34.5425 20.8404 34.8978 21.2821 34.8978C21.7237 34.8978 22.0851 34.5425 22.0851 34.1082C22.0851 33.674 21.7237 33.3187 21.2821 33.3187ZM48.5851 33.3187C48.1434 33.3187 47.7821 33.674 47.7821 34.1082C47.7821 34.5425 48.1434 34.8978 48.5851 34.8978C49.0268 34.8978 49.3881 34.5425 49.3881 34.1082C49.3881 33.674 49.0268 33.3187 48.5851 33.3187ZM10.8427 35.6874C10.401 35.6874 10.0397 36.0427 10.0397 36.4769C10.0397 36.9112 10.401 37.2665 10.8427 37.2665C11.2844 37.2665 11.6457 36.9112 11.6457 36.4769C11.6457 36.0427 11.2844 35.6874 10.8427 35.6874ZM34.9336 35.6874C39.8722 35.6874 43.1084 36.8243 43.7669 37.0612V39.6352H26.1003V37.0612C26.7587 36.8243 29.995 35.6874 34.9336 35.6874ZM59.0245 35.6874C58.5828 35.6874 58.2215 36.0427 58.2215 36.4769C58.2215 36.9112 58.5828 37.2665 59.0245 37.2665C59.4662 37.2665 59.8275 36.9112 59.8275 36.4769C59.8275 36.0427 59.4662 35.6874 59.0245 35.6874ZM10.8427 38.8456C10.401 38.8456 10.0397 39.2009 10.0397 39.6352C10.0397 40.0694 10.401 40.4247 10.8427 40.4247C11.2844 40.4247 11.6457 40.0694 11.6457 39.6352C11.6457 39.2009 11.2844 38.8456 10.8427 38.8456ZM59.0245 38.8456C58.5828 38.8456 58.2215 39.2009 58.2215 39.6352C58.2215 40.0694 58.5828 40.4247 59.0245 40.4247C59.4662 40.4247 59.8275 40.0694 59.8275 39.6352C59.8275 39.2009 59.4662 38.8456 59.0245 38.8456ZM10.8427 42.0038C10.401 42.0038 10.0397 42.3591 10.0397 42.7934C10.0397 43.2276 10.401 43.5829 10.8427 43.5829C11.2844 43.5829 11.6457 43.2276 11.6457 42.7934C11.6457 42.3591 11.2844 42.0038 10.8427 42.0038ZM59.0245 42.0038C58.5828 42.0038 58.2215 42.3591 58.2215 42.7934C58.2215 43.2276 58.5828 43.5829 59.0245 43.5829C59.4662 43.5829 59.8275 43.2276 59.8275 42.7934C59.8275 42.3591 59.4662 42.0038 59.0245 42.0038ZM10.8427 45.1621C10.401 45.1621 10.0397 45.5174 10.0397 45.9516C10.0397 46.3859 10.401 46.7412 10.8427 46.7412C11.2844 46.7412 11.6457 46.3859 11.6457 45.9516C11.6457 45.5174 11.2844 45.1621 10.8427 45.1621ZM59.0245 45.1621C58.5828 45.1621 58.2215 45.5174 58.2215 45.9516C58.2215 46.3859 58.5828 46.7412 59.0245 46.7412C59.4662 46.7412 59.8275 46.3859 59.8275 45.9516C59.8275 45.5174 59.4662 45.1621 59.0245 45.1621ZM22.8881 46.7412H25.2972V48.3203H22.8881V46.7412ZM44.57 46.7412H46.979V48.3203H44.57V46.7412ZM10.8427 48.3203C10.401 48.3203 10.0397 48.6756 10.0397 49.1099C10.0397 49.5441 10.401 49.8994 10.8427 49.8994C11.2844 49.8994 11.6457 49.5441 11.6457 49.1099C11.6457 48.6756 11.2844 48.3203 10.8427 48.3203ZM59.0245 48.3203C58.5828 48.3203 58.2215 48.6756 58.2215 49.1099C58.2215 49.5441 58.5828 49.8994 59.0245 49.8994C59.4662 49.8994 59.8275 49.5441 59.8275 49.1099C59.8275 48.6756 59.4662 48.3203 59.0245 48.3203Z" fill="white"/>
<ellipse cx="19.8613" cy="23.4948" rx="19.0469" ry="19.9406" fill="white" fill-opacity="0.12"/>
<ellipse cx="54.6211" cy="39.1979" rx="19.0469" ry="19.9406" fill="white" fill-opacity="0.12"/>
</svg>
