<svg width="18" height="18" viewBox="0 0 18 18" fill="none" xmlns="http://www.w3.org/2000/svg">
<path fill-rule="evenodd" clip-rule="evenodd" d="M16.6198 5.38815L14.4245 2.41383C14.0003 1.83915 13.3284 1.5 12.6142 1.5H5.38576C4.67148 1.5 3.99964 1.83915 3.57547 2.41383L1.38014 5.38815C0.784841 6.19468 0.794904 7.29775 1.40482 8.09329L7.21435 15.6709C8.11495 16.8456 9.88497 16.8456 10.7856 15.6709L16.5951 8.09329C17.205 7.29775 17.2151 6.19468 16.6198 5.38815ZM2.79287 6L4.78233 3.30461C4.92372 3.11305 5.14767 3 5.38576 3H12.6142C12.8523 3 13.0762 3.11305 13.2176 3.30461L15.2071 6H2.79287ZM2.84007 7.5L8.40476 14.7583C8.70496 15.1499 9.29496 15.1499 9.59517 14.7583L15.1599 7.5H2.84007Z" fill="#7558EA"/>
</svg>
