<?xml version="1.0" encoding="iso-8859-1"?>
<!-- Uploaded to: SVG Repo, www.svgrepo.com, Generator: SVG Repo Mixer Tools -->
<svg fill="#000000" height="800px" width="800px" version="1.1" id="Layer_1" xmlns="http://www.w3.org/2000/svg" xmlns:xlink="http://www.w3.org/1999/xlink" 
	 viewBox="0 0 511.999 511.999" xml:space="preserve">
<g>
	<g>
		<g>
			<path d="M447.997,191.997c-0.094,0-0.188,0.006-0.283,0.007v-27.501c0-67.183-54.657-121.839-121.842-121.839H186.125
				c-67.183,0-121.841,54.656-121.841,121.839v27.501c-0.095-0.001-0.189-0.007-0.284-0.007C28.71,191.997,0,220.708,0,255.999
				c0,27.324,17.491,51.445,42.668,60.353v142.314c0,5.892,4.775,10.667,10.667,10.667h63.999c1.668,0,3.242-0.394,4.648-1.077
				h268.034c1.406,0.684,2.979,1.077,4.647,1.077h64.003c5.891,0,10.667-4.776,10.667-10.667V316.352
				c25.175-8.908,42.666-33.03,42.666-60.353C512,220.708,483.289,191.997,447.997,191.997z M106.666,256.097v57.207v37.622V448
				H64.003V308.263c0-5.073-3.575-9.446-8.547-10.454c-19.77-4.013-34.121-21.596-34.121-41.81c0-23.526,19.14-42.666,42.666-42.666
				c23.492,0,42.609,19.082,42.668,42.559C106.666,255.961,106.666,256.029,106.666,256.097z M383.997,446.921H128.001v-31.998
				h48.546c5.891,0,10.667-4.777,10.667-10.667c0-5.891-4.777-10.667-10.667-10.667h-48.546v-31.996h255.995V446.921z
				 M383.997,340.257H128.001v-26.955c0-14.863,12.091-26.955,26.952-26.955h202.091c14.861,0,26.951,12.092,26.951,26.955V340.257z
				 M383.998,256.097v17.158c-7.703-5.2-16.978-8.241-26.951-8.241h-90.38v-68.655c0-5.892-4.776-10.667-10.667-10.667
				c-5.892,0-10.668,4.776-10.668,10.667v68.655h-90.378c-9.974,0-19.249,3.04-26.952,8.242v-17.044
				c0.002-0.07,0.002-0.141,0.002-0.211c0-27.707-17.701-51.349-42.384-60.235v-31.261h0.001C85.619,109.086,130.707,64,186.125,64
				h139.748c55.419,0,100.507,45.086,100.507,100.504v31.261C401.697,204.654,383.998,228.314,383.998,256.097z M456.545,297.809
				c-4.972,1.008-8.546,5.381-8.546,10.454v139.736h-42.668v-97.074v-37.622v-57.305c0-23.526,19.141-42.666,42.666-42.666
				c23.528,0,42.668,19.14,42.668,42.666C490.665,276.213,476.316,293.796,456.545,297.809z"/>
			<path d="M256.003,154.793c-5.892,0-10.667,4.777-10.667,10.667v0.25c0,5.891,4.777,10.667,10.667,10.667
				c5.892,0,10.668-4.777,10.668-10.667v-0.25C266.67,159.57,261.894,154.793,256.003,154.793z"/>
			<path d="M207.191,414.93h0.254c5.891,0,10.667-4.776,10.667-10.667s-4.777-10.667-10.667-10.667h-0.254
				c-5.892,0-10.667,4.777-10.667,10.667C196.524,410.154,201.3,414.93,207.191,414.93z"/>
		</g>
	</g>
</g>
</svg>