<?xml version="1.0" ?>
<!DOCTYPE svg  PUBLIC '-//W3C//DTD SVG 1.1//EN'  'http://www.w3.org/Graphics/SVG/1.1/DTD/svg11.dtd'>
<!-- Uploaded to: SVG Repo, www.svgrepo.com, Generator: SVG Repo Mixer Tools -->
<svg fill="#000000" width="800px" height="800px" viewBox="0 0 846.66 846.66" style="shape-rendering:geometricPrecision; text-rendering:geometricPrecision; image-rendering:optimizeQuality; fill-rule:evenodd; clip-rule:evenodd" version="1.1" xml:space="preserve" xmlns="http://www.w3.org/2000/svg" xmlns:xlink="http://www.w3.org/1999/xlink">
<defs>
<style type="text/css">
   <![CDATA[
    .fil0 {fill:black;fill-rule:nonzero}
   ]]>
  </style>
</defs>
<g id="Layer_x0020_1">
<path class="fil0" d="M782.11 240.98c8.78,0 15.86,-7.09 15.86,-15.87 0,-8.74 -7.14,-15.87 -15.86,-15.87l-717.56 0c-8.75,0 -15.86,7.12 -15.86,15.87 0,8.68 7.18,15.87 15.86,15.87l717.56 0zm-153.55 439.63c-27.37,0 -27.37,-41.61 0,-41.61l128.78 0 0 -356.41 -668.02 0 0 356.41 128.78 0c27.37,0 27.37,41.61 0,41.61l-128.78 0 0 67.81 272.48 0 0 -96.94c0,-11.49 9.31,-20.8 20.8,-20.8l81.46 0c11.49,0 20.8,9.31 20.8,20.8l0 96.94 272.48 0 0 -67.81 -128.78 0zm-185.31 67.81l0 -76.13 -39.84 0 0 76.13 39.84 0zm-274.79 -296.67l87.39 0c11.48,0 20.8,9.32 20.8,20.81l0 87.38c0,11.49 -9.32,20.8 -20.8,20.8l-87.39 0c-11.49,0 -20.8,-9.31 -20.8,-20.8l0 -87.38c0,-11.49 9.31,-20.81 20.8,-20.81zm66.58 41.61l-45.77 0 0 45.77 45.77 0 0 -45.77zm355.77 -41.61l87.39 0c11.49,0 20.8,9.32 20.8,20.81l0 87.38c0,11.49 -9.31,20.8 -20.8,20.8l-87.39 0c-11.48,0 -20.8,-9.31 -20.8,-20.8l0 -87.38c0,-11.49 9.32,-20.81 20.8,-20.81zm66.58 41.61l-45.77 0 0 45.77 45.77 0 0 -45.77zm-277.75 -41.61l87.38 0c11.49,0 20.81,9.32 20.81,20.81l0 87.38c0,11.49 -9.32,20.8 -20.81,20.8l-87.38 0c-11.49,0 -20.81,-9.31 -20.81,-20.8l0 -87.38c0,-11.49 9.32,-20.81 20.81,-20.81zm66.58 41.61l-45.78 0 0 45.77 45.78 0 0 -45.77zm-277.76 -185.17l87.39 0c11.48,0 20.8,9.32 20.8,20.81l0 87.38c0,11.49 -9.32,20.81 -20.8,20.81l-87.39 0c-11.49,0 -20.8,-9.32 -20.8,-20.81l0 -87.38c0,-11.49 9.31,-20.81 20.8,-20.81zm66.58 41.61l-45.77 0 0 45.78 45.77 0 0 -45.78zm355.77 -41.61l87.39 0c11.49,0 20.8,9.32 20.8,20.81l0 87.38c0,11.49 -9.31,20.81 -20.8,20.81l-87.39 0c-11.48,0 -20.8,-9.32 -20.8,-20.81l0 -87.38c0,-11.49 9.32,-20.81 20.8,-20.81zm66.58 41.61l-45.77 0 0 45.78 45.77 0 0 -45.78zm-277.75 -41.61l87.38 0c11.49,0 20.81,9.32 20.81,20.81l0 87.38c0,11.49 -9.32,20.81 -20.81,20.81l-87.38 0c-11.49,0 -20.81,-9.32 -20.81,-20.81l0 -87.38c0,-11.49 9.32,-20.81 20.81,-20.81zm66.58 41.61l-45.78 0 0 45.78 45.78 0 0 -45.78zm-308.67 -293.17l571.56 0c11.49,0 20.81,9.32 20.81,20.81l0 90.2 52.19 0c31.59,0 57.47,25.86 57.47,57.47 0,25.23 -16.76,47.55 -40.63,54.94l0 489.17c0,11.49 -9.32,20.81 -20.81,20.81 -236.54,0 -473.08,0 -709.62,0 -11.49,0 -20.81,-9.32 -20.81,-20.81l0 -489.16c-9.08,-2.79 -17.21,-7.78 -23.77,-14.34 -10.4,-10.4 -16.86,-24.78 -16.86,-40.61 0,-31.59 25.86,-57.47 57.47,-57.47l52.19 0 0 -90.2c0,-11.49 9.32,-20.81 20.81,-20.81zm550.76 41.61l-529.96 0 0 69.4 529.96 0 0 -69.4z"/>
</g>
</svg>