<?xml version="1.0" encoding="UTF-8" standalone="no"?>
<!-- Created with Inkscape (http://www.inkscape.org/) -->

<svg
   version="1.1"
   id="svg2193"
   xml:space="preserve"
   width="682.66669"
   height="682.66669"
   viewBox="0 0 682.66669 682.66669"
   xmlns="http://www.w3.org/2000/svg"
   xmlns:svg="http://www.w3.org/2000/svg"><defs
     id="defs2197"><clipPath
       clipPathUnits="userSpaceOnUse"
       id="clipPath2207"><path
         d="M 0,512 H 512 V 0 H 0 Z"
         id="path2205" /></clipPath></defs><g
     id="g2199"
     transform="matrix(1.3333333,0,0,-1.3333333,0,682.66667)"><g
       id="g2201"><g
         id="g2203"
         clip-path="url(#clipPath2207)"><g
           id="g2209"
           transform="translate(219.1455,291.8115)"><path
             d="m 0,0 v -82.657 c 0,-4.505 -3.652,-8.156 -8.157,-8.156 h -7.97 c -5.676,8.757 -18.006,9.995 -25.31,2.542 -9.303,-9.493 -9.303,-24.684 0,-34.176 7.304,-7.453 19.634,-6.215 25.31,2.542 h 7.97 c 4.505,0 8.157,-3.652 8.157,-8.157 v -78.273 c 0,-2.553 -2.07,-4.623 -4.623,-4.623 h -169.202 c -20.991,0 -38.009,17.018 -38.009,38.009 v 347.65 c 0,20.991 17.018,38.008 38.009,38.008 h 347.649 c 20.992,0 38.009,-17.017 38.009,-38.008 V 4.389 c 0,-1.94 -1.572,-3.513 -3.513,-3.513 h -84.102 c -2.725,0 -4.934,-2.209 -4.934,-4.933 v -11.194 c 8.758,-5.676 9.996,-18.006 2.543,-25.31 -9.493,-9.303 -24.683,-9.303 -34.177,0 -7.453,7.304 -6.213,19.634 2.543,25.31 v 11.194 c 0,2.724 -2.209,4.933 -4.933,4.933 L 0,0.876"
             style="fill:none;stroke:#000000;stroke-width:15;stroke-linecap:round;stroke-linejoin:round;stroke-miterlimit:10;stroke-dasharray:none;stroke-opacity:1"
             id="path2211" /></g><g
           id="g2213"
           transform="translate(219.1455,503.041)"><path
             d="m 0,0 v -86.136 c 0,-2.724 2.208,-4.933 4.933,-4.933 h 11.194 c 5.676,8.757 18.006,9.996 25.31,2.543 9.302,-9.494 9.302,-24.684 0,-34.177 -7.304,-7.453 -19.634,-6.214 -25.31,2.543 H 4.933 C 2.208,-120.16 0,-122.369 0,-125.093 v -86.136"
             style="fill:none;stroke:#000000;stroke-width:15;stroke-linecap:round;stroke-linejoin:round;stroke-miterlimit:10;stroke-dasharray:none;stroke-opacity:1"
             id="path2215" /></g><g
           id="g2217"
           transform="translate(218.2695,292.6875)"><path
             d="M 0,0 H -22.036"
             style="fill:none;stroke:#000000;stroke-width:15;stroke-linecap:round;stroke-linejoin:round;stroke-miterlimit:10;stroke-dasharray:none;stroke-opacity:1"
             id="path2219" /></g><g
           id="g2221"
           transform="translate(164.2715,292.687)"><path
             d="m 0,0 h -28.658 c -4.506,0 -8.157,3.652 -8.157,8.157 v 7.97 c 8.756,5.676 9.995,18.006 2.542,25.31 -9.493,9.303 -24.683,9.303 -34.176,0 -7.453,-7.304 -6.215,-19.634 2.542,-25.31 V 8.157 C -65.907,3.652 -69.559,0 -74.063,0 h -81.416"
             style="fill:none;stroke:#000000;stroke-width:15;stroke-linecap:round;stroke-linejoin:round;stroke-miterlimit:10;stroke-dasharray:none;stroke-opacity:1"
             id="path2223" /></g><g
           id="g2225"
           transform="translate(292.4727,162.1729)"><path
             d="m 0,0 v -26.15 c 0,-4.505 -3.652,-8.157 -8.157,-8.157 h -7.97 c -5.676,8.757 -18.006,9.995 -25.31,2.542 h -0.001 c -9.302,-9.492 -9.302,-24.683 0,-34.176 h 0.001 c 7.304,-7.453 19.634,-6.214 25.31,2.543 h 7.97 c 4.505,0 8.157,-3.652 8.157,-8.157 v -77.444 c 0,-3.011 2.441,-5.452 5.452,-5.452 h 168.372 c 20.992,0 38.009,17.017 38.009,38.009 V 56.882 c 0,0.277 -0.224,0.5 -0.5,0.5 h -87.115 c -2.725,0 -4.934,-2.208 -4.934,-4.933 V 41.255 c 8.757,-5.675 9.996,-18.005 2.543,-25.309 -9.493,-9.303 -24.683,-9.303 -34.177,0 -7.453,7.304 -6.214,19.634 2.543,25.309 v 11.194 c 0,2.725 -2.209,4.933 -4.933,4.933 H 0.5 c -0.276,0 -0.5,-0.223 -0.5,-0.5 v -24.92"
             style="fill:none;stroke:#000000;stroke-width:15;stroke-linecap:round;stroke-linejoin:round;stroke-miterlimit:10;stroke-dasharray:none;stroke-opacity:1"
             id="path2227" /></g></g></g></g></svg>
