<svg width="73" height="73" viewBox="0 0 73 73" fill="none" xmlns="http://www.w3.org/2000/svg">
<rect x="0.210449" y="0.433594" width="72" height="72" rx="16" fill="#FFF2E3"/>
<path d="M57.3744 47.08L57.3836 47.0749H57.3655L46.7393 41.3169L36.0953 35.5488L25.451 41.3169L14.8247 47.0749H14.8066L14.8159 47.08L14.8066 47.085H14.8247L25.451 52.843L36.0953 58.6111L46.7393 52.843L57.3655 47.085H57.3836L57.3744 47.08Z" fill="#F5D1A7"/>
<path d="M57.3744 24.9647L57.3836 24.9601H57.3655L46.7393 19.2017L36.0953 13.4336L25.451 19.2017L14.8247 24.9601H14.8066L14.8159 24.9647L14.8066 24.9698H14.8247L25.451 30.7282L36.0953 36.4963L46.7393 30.7282L57.3655 24.9698H57.3836L57.3744 24.9647Z" fill="#EAA758"/>
<path d="M14.8247 24.4961V47.5487L36.0953 36.0226L14.8247 24.4961Z" fill="#EFBD82"/>
<path d="M57.3654 24.4961V47.5487L36.0952 36.0226L57.3654 24.4961Z" fill="#EFBD82"/>
</svg>
