<?xml version="1.0" encoding="utf-8"?>
<!-- Generator: Adobe Illustrator 23.0.5, SVG Export Plug-In . SVG Version: 6.00 Build 0)  -->
<svg version="1.1" id="Layer_1" xmlns="http://www.w3.org/2000/svg" xmlns:xlink="http://www.w3.org/1999/xlink" x="0px" y="0px"
	 viewBox="0 0 65 65" style="enable-background:new 0 0 65 65;" xml:space="preserve">
<style type="text/css">
	.st0{fill:#077A76;fill-opacity:0.1;}
	.st1{fill:none;stroke:#FFFFFF;stroke-width:2;}
	.st2{fill:none;stroke:#FFFFFF;stroke-width:6;stroke-linecap:round;stroke-linejoin:round;}
	.st3{fill:none;stroke:#FFFFFF;stroke-width:2;stroke-linecap:round;stroke-linejoin:round;}
</style>
<path class="st0" d="M45.6,11.3H18.9c-4.4,0-8,3.6-8,8V46c0,4.4,3.6,8,8,8h26.7c4.4,0,8-3.6,8-8V19.3C53.6,14.9,50,11.3,45.6,11.3z"
	/>
<path class="st1" d="M18.9,12.3h26.7c3.9,0,7,3.1,7,7V46c0,3.9-3.1,7-7,7H18.9c-3.9,0-7-3.1-7-7V19.3C11.9,15.4,15,12.3,18.9,12.3z"
	/>
<path class="st2" d="M40.2,22L40.2,22"/>
<path class="st3" d="M14.6,40l8.8-9c1-1,2.1-1.5,3.3-1.5c1.2,0,2.3,0.5,3.3,1.5l11,11.3"/>
<path class="st3" d="M37,37.7l2.1-2.1c1-0.9,2.1-1.4,3.2-1.4c1.1,0,2.2,0.5,3.2,1.4l4.3,4.2"/>
</svg>
