<svg width="15" height="17" viewBox="0 0 15 17" fill="none" xmlns="http://www.w3.org/2000/svg">
<path fill-rule="evenodd" clip-rule="evenodd" d="M8.0029 1.68932V12.8647C8.0029 13.15 7.778 13.3826 7.50137 13.3826C7.22475 13.3826 6.99984 13.1504 6.99984 12.8647V1.68932L4.20069 4.58038C4.00478 4.78269 3.68662 4.78269 3.49032 4.58038C3.29441 4.37806 3.28775 4.03939 3.49659 3.84032L7.52096 0H7.68827L7.72667 0.0396534L7.7588 0.0728329C7.80386 0.119365 7.84891 0.165897 7.89397 0.212429C8.04169 0.364974 8.1898 0.514281 8.34065 0.663993C8.77126 1.09897 9.20853 1.5303 9.64227 1.96163C10.0247 2.34319 10.4071 2.72193 10.7864 3.10349C11.034 3.3491 11.2812 3.59471 11.5226 3.84355C11.7185 4.04587 11.7185 4.37442 11.5226 4.57714C11.3267 4.77945 11.0085 4.77945 10.8122 4.57714L8.0127 1.68649L8.0029 1.68932ZM1.00619 15.9613H13.9969V8.34058C13.9969 8.05532 14.2218 7.82265 14.4985 7.82265C14.7751 7.82265 15 8.05491 15 8.34058V16.4821C15 16.7673 14.7751 17 14.4985 17H0.501528C0.225296 17 0 16.7677 0 16.4821V8.34058C0 8.05532 0.224904 7.82265 0.501528 7.82265C0.778152 7.82265 1.00306 8.05491 1.00306 8.34058V15.9613H1.00619Z" fill="white"/>
</svg>
